<svg width="28" height="34" viewBox="0 0 28 34" version="1.1" xmlns="http://www.w3.org/2000/svg" xmlns:xlink="http://www.w3.org/1999/xlink">
<title>ferry</title>
<desc>Created using Figma</desc>
<g id="Canvas" transform="translate(-574 -958)">
<g id="ferry">
<g id="Group">
<g id="Rectangle 8">
<use xlink:href="#path0_fill" transform="translate(574 958)" fill="#D35400"/>
</g>
<g id="Polygon">
<use xlink:href="#path1_fill" transform="matrix(1 0 0 -1 583 992)" fill="#D35400"/>
</g>
</g>
<g id="ic_directions_boat_black_24px">
<g id="Vector">
<use xlink:href="#path2_fill" transform="translate(579.665 962.833)" fill="#FFFFFF"/>
</g>
</g>
</g>
</g>
<defs>
<path id="path0_fill" d="M 0 2.24C 0 1.00288 1.00288 0 2.24 0L 25.76 0C 26.9971 0 28 1.00288 28 2.24L 28 25.76C 28 26.9971 26.9971 28 25.76 28L 2.24 28C 1.00288 28 0 26.9971 0 25.76L 0 2.24Z"/>
<path id="path1_fill" d="M 4.76314 0L 9.52628 6L -3.91703e-09 6L 4.76314 0Z"/>
<path id="path2_fill" d="M 15.0019 16.6667C 13.8436 16.6667 12.6853 16.275 11.6686 15.5667C 9.63527 16.9917 7.03527 16.9917 5.00194 15.5667C 3.98527 16.275 2.82694 16.6667 1.66861 16.6667L 0.00194166 16.6667L 0.00194166 18.3333L 1.66861 18.3333C 2.81861 18.3333 3.95194 18.0417 5.00194 17.5083C 7.10194 18.5833 9.56861 18.5833 11.6686 17.5083C 12.7186 18.05 13.8519 18.3333 15.0019 18.3333L 16.6686 18.3333L 16.6686 16.6667L 15.0019 16.6667ZM 1.62694 15L 1.66861 15C 3.00194 15 4.18527 14.2667 5.00194 13.3333C 5.81861 14.2667 7.00194 15 8.33527 15C 9.66861 15 10.8519 14.2667 11.6686 13.3333C 12.4853 14.2667 13.6686 15 15.0019 15L 15.0436 15L 16.6186 9.43333C 16.6853 9.21667 16.6686 8.98333 16.5686 8.78333C 16.4686 8.58333 16.2853 8.43333 16.0686 8.36667L 15.0019 8.01667L 15.0019 4.16667C 15.0019 3.25 14.2519 2.5 13.3353 2.5L 10.8353 2.5L 10.8353 0L 5.83527 0L 5.83527 2.5L 3.33527 2.5C 2.41861 2.5 1.66861 3.25 1.66861 4.16667L 1.66861 8.01667L 0.593608 8.36667C 0.376942 8.43333 0.193608 8.58333 0.0936082 8.78333C -0.00639175 8.98333 -0.0313917 9.21667 0.0436083 9.43333L 1.62694 15ZM 3.33527 4.16667L 13.3353 4.16667L 13.3353 7.475L 8.33527 5.83333L 3.33527 7.475L 3.33527 4.16667Z"/>
</defs>
</svg>
