<svg height="682pt" viewBox="-21 -21 682.66669 682" width="682pt" xmlns="http://www.w3.org/2000/svg"><path d="m640 584.660156-79.847656-37.460937c18.867187-15.933594 29.847656-39.285157 29.847656-64.449219v-114.308594c0-46.21875-13.09375-91.28125-37.867188-130.3125-24.769531-39.023437-59.96875-70.046875-101.800781-89.726562l-300.863281-141.511719c-21.441406-10.128906-46.203125-8.597656-66.230469 4.089844-20.03125 12.6875-31.988281 34.421875-31.988281 58.132812v215.910157c0 8.339843.859375 16.570312 2.476562 24.582031l-53.726562-25.207031v55.3125l110.277344 51.734374c4.121094 2.582032 8.402344 4.953126 12.863281 7.054688l193.496094 89.761719 323.363281 151.710937zm-171.25-80.953125v-104.121093l71.25 33.089843v50.074219c0 12.050781-5.835938 22.660156-16.011719 29.117188-10.167969 6.453124-22.261719 7.214843-33.160156 2.082031zm71.25-135.265625v9.109375l-71.25-33.097656v-125.746094c44.296875 36.214844 71.25 91.152344 71.25 149.734375zm-322.5-140.683594v-133.613281l76.25 35.867188v133.164062zm126.25-74.230468 75 35.277344v132.425781l-75-34.832031zm-233.753906-100.308594c2.628906-1.671875 9.660156-5.113281 18.148437-1.097656l39.355469 18.503906v133.910156l-66.25-30.769531v-104.652344c0-9.347656 6.117188-14.230469 8.746094-15.894531zm-8.746094 231.804688v-56.132813l317.5 147.472656v104.148438l-65.070312-30.183594-219.523438-102.992187c-20.292969-13.925782-32.90625-37.277344-32.90625-62.3125zm0 0"/></svg>