<svg width="250" height="250" xmlns="http://www.w3.org/2000/svg" xmlns:xlink="http://www.w3.org/1999/xlink"><use xlink:href="#path0_fill" fill="#00AEEF"/><use xlink:href="#path1_fill" transform="translate(85.969 61.938)" fill="#FFF"/><defs><path id="path0_fill" d="M250 125c0 69.036-55.964 125-125 125S0 194.036 0 125 55.964 0 125 0s125 55.964 125 125z"/><path id="path1_fill" d="M29.063 64.5h9.562c8.938 0 15.625-1.75 20.063-5.25 4.437-3.563 6.656-8.719 6.656-15.469 0-6.812-1.875-11.843-5.625-15.093-3.688-3.25-9.5-4.875-17.438-4.875H29.063V64.5zm65.624-21.75c0 14.75-4.624 26.031-13.874 33.844-9.188 7.812-22.282 11.719-39.282 11.719H29.063v48.749H0V0h43.781c16.625 0 29.25 3.594 37.875 10.781 8.688 7.125 13.031 17.782 13.031 31.969z"/></defs></svg>