<svg width="30" height="30" viewBox="0 0 30 30" fill="none" xmlns="http://www.w3.org/2000/svg">
<rect width="30" height="30" fill="black" fill-opacity="0"/>
<path d="M30 15C30 23.2843 23.2843 30 15 30C6.71573 30 0 23.2843 0 15C0 6.71573 6.71573 0 15 0C23.2843 0 30 6.71573 30 15Z" fill="white"/>
<path d="M15 21.5C13.6755 21.5 12.481 21.2231 11.4164 20.6694C10.3519 20.1037 9.51636 19.3273 8.90981 18.3403C8.30327 17.3412 8 16.2278 8 15C8 13.7722 8.30327 12.6648 8.90981 11.6778C9.51636 10.6787 10.3519 9.90231 11.4164 9.34861C12.481 8.78287 13.6755 8.5 15 8.5C16.3245 8.5 17.519 8.78287 18.5836 9.34861C19.6481 9.90231 20.4836 10.6727 21.0902 11.6597C21.6967 12.6468 22 13.7602 22 15C22 16.2398 21.6967 17.3532 21.0902 18.3403C20.4836 19.3273 19.6481 20.1037 18.5836 20.6694C17.519 21.2231 16.3245 21.5 15 21.5ZM15 19.4417C15.8665 19.4417 16.6463 19.2551 17.3395 18.8819C18.0327 18.4968 18.5774 17.9671 18.9735 17.2931C19.3696 16.6069 19.5676 15.8426 19.5676 15C19.5676 14.1574 19.3696 13.3991 18.9735 12.725C18.5774 12.0389 18.0327 11.5093 17.3395 11.1361C16.6463 10.7509 15.8665 10.5583 15 10.5583C14.1335 10.5583 13.3537 10.7509 12.6605 11.1361C11.9673 11.5093 11.4226 12.0389 11.0265 12.725C10.6304 13.3991 10.4324 14.1574 10.4324 15C10.4324 15.8426 10.6304 16.6069 11.0265 17.2931C11.4226 17.9671 11.9673 18.4968 12.6605 18.8819C13.3537 19.2551 14.1335 19.4417 15 19.4417Z" fill="#00A6D6"/>
</svg>
