<svg width="31" height="31" viewBox="0 0 31 31" fill="none" xmlns="http://www.w3.org/2000/svg">
<rect width="30.0714" height="30.0715" fill="black" fill-opacity="0"/>
<circle cx="15" cy="15" r="15" fill="white"/>
<path d="M15.0093 21.2515C14.0373 21.2515 13.0953 21.1135 12.1833 20.8375C11.2833 20.5615 10.5693 20.1955 10.0413 19.7395L10.8513 17.9215C11.3673 18.3295 11.9973 18.6655 12.7413 18.9295C13.4973 19.1815 14.2533 19.3075 15.0093 19.3075C15.9453 19.3075 16.6413 19.1575 17.0973 18.8575C17.5653 18.5575 17.7993 18.1615 17.7993 17.6695C17.7993 17.3095 17.6673 17.0155 17.4033 16.7875C17.1513 16.5475 16.8273 16.3615 16.4313 16.2295C16.0353 16.0975 15.4953 15.9475 14.8113 15.7795C13.8513 15.5515 13.0713 15.3235 12.4713 15.0955C11.8833 14.8675 11.3733 14.5135 10.9413 14.0335C10.5213 13.5415 10.3113 12.8815 10.3113 12.0535C10.3113 11.3575 10.4973 10.7275 10.8693 10.1635C11.2533 9.58753 11.8233 9.13153 12.5793 8.79553C13.3473 8.45953 14.2833 8.29153 15.3873 8.29153C16.1553 8.29153 16.9113 8.38753 17.6553 8.57953C18.3993 8.77153 19.0413 9.04753 19.5813 9.40753L18.8433 11.2255C18.2913 10.9015 17.7153 10.6555 17.1153 10.4875C16.5153 10.3195 15.9333 10.2355 15.3693 10.2355C14.4453 10.2355 13.7553 10.3915 13.2993 10.7035C12.8553 11.0155 12.6333 11.4295 12.6333 11.9455C12.6333 12.3055 12.7593 12.5995 13.0113 12.8275C13.2753 13.0555 13.6053 13.2355 14.0013 13.3675C14.3973 13.4995 14.9373 13.6495 15.6213 13.8175C16.5573 14.0335 17.3253 14.2615 17.9253 14.5015C18.5253 14.7295 19.0353 15.0835 19.4553 15.5635C19.8873 16.0435 20.1033 16.6915 20.1033 17.5075C20.1033 18.2035 19.9113 18.8335 19.5273 19.3975C19.1553 19.9615 18.5853 20.4115 17.8173 20.7475C17.0493 21.0835 16.1133 21.2515 15.0093 21.2515Z" fill="#DA291C"/>
</svg>
