<svg width="42" height="32" viewBox="0 0 42 32" fill="none" xmlns="http://www.w3.org/2000/svg">
<rect width="42" height="32" fill="black" fill-opacity="0"/>
<rect width="107.759" height="85.0394" fill="black" fill-opacity="0" transform="translate(0 32) scale(0.352778 -0.352778)"/>
<path d="M38.0149 10.9922V9.35967C37.2744 9.24804 36.5269 9.31566 35.7971 9.50456C34.8834 9.74123 33.5315 10.3224 31.596 11.8583V22.1084H33.1918V12.6059C33.9409 12.0601 34.7693 11.5626 35.6058 11.2503C36.4267 10.9433 37.2535 10.8156 38.0149 10.9922ZM38.0149 8.10282V6.47033C37.0006 6.37265 36.0435 6.49662 35.2023 6.71933C34.4907 6.9077 33.7968 7.19481 33.1918 7.49587V6.60234H31.596V10.4351C32.3955 9.72245 33.7341 8.76398 35.4027 8.31105C36.2268 8.0878 37.112 7.98905 38.0149 8.10282ZM28.7598 22.1084H30.3556V6.60234H28.7598V22.1084ZM27.1743 17.0429C27.1743 9.15681 22.6453 2 13.5456 2C4.40571 2 0 9.15681 0 16.9571C0 24.8432 4.48823 32 13.6287 32C22.7685 32 27.1743 24.8432 27.1743 17.0429ZM25.6096 17.0429C25.6096 24.0286 21.6979 30.4577 13.6287 30.4577C5.51759 30.4577 1.56466 24.0286 1.56466 16.9571C1.56466 9.97145 5.47633 3.54234 13.5456 3.54234C21.6567 3.54234 25.6096 9.97145 25.6096 17.0429ZM24.3332 17C24.3332 10.9138 21.1219 4.61404 13.5456 4.61404C5.97037 4.61404 2.84105 10.8714 2.84105 17C2.84105 23.0857 6.05236 29.386 13.6287 29.386C21.2039 29.386 24.3332 23.1291 24.3332 17ZM22.7685 17C22.7685 22.3569 20.01 27.8431 13.6287 27.8431C7.2055 27.8431 4.40571 22.2715 4.40571 17C4.40571 11.6426 7.16423 6.15692 13.5456 6.15692C19.9693 6.15692 22.7685 11.7285 22.7685 17Z" fill="white"/>
</svg>
