<svg width="32" height="32" viewBox="0 0 32 32" fill="none" xmlns="http://www.w3.org/2000/svg">
<rect width="32" height="32" fill="black" fill-opacity="0"/>
<rect width="29.9994" height="30" fill="black" fill-opacity="0" transform="translate(0 2)"/>
<rect width="69.192" height="69.2965" fill="black" fill-opacity="0" transform="translate(2.77856 29.229) scale(0.352778 -0.352778)"/>
<path d="M14.9833 4.78275C8.2536 4.78275 2.77856 10.266 2.77856 17.0059C2.77856 23.7457 8.2536 29.229 14.9833 29.229C21.7129 29.229 27.188 23.7457 27.188 17.0059C27.188 10.266 21.7129 4.78275 14.9833 4.78275ZM14.9833 27.4609C9.22734 27.4609 4.54395 22.7711 4.54395 17.0059C4.54395 11.2413 9.22734 6.5508 14.9833 6.5508C20.7392 6.5508 25.4226 11.2413 25.4226 17.0059C25.4226 22.7711 20.7392 27.4609 14.9833 27.4609Z" fill="white"/>
<rect width="85.0375" height="85.0394" fill="black" fill-opacity="0" transform="translate(0 32) scale(0.352778 -0.352778)"/>
<path d="M14.9997 2C6.72865 2 0 8.7293 0 17.0003C0 25.2707 6.72865 32 14.9997 32C23.2707 32 29.9994 25.2707 29.9994 17.0003C29.9994 8.7293 23.2707 2 14.9997 2ZM14.9997 30.2327C7.70346 30.2327 1.76733 24.2965 1.76733 17.0003C1.76733 9.70346 7.70346 3.76733 14.9997 3.76733C22.2959 3.76733 28.232 9.70346 28.232 17.0003C28.232 24.2965 22.2959 30.2327 14.9997 30.2327Z" fill="white"/>
</svg>
