<svg width="28" height="28" viewBox="0 0 28 28" fill="none" xmlns="http://www.w3.org/2000/svg">
<rect width="26" height="26" fill="black" fill-opacity="0" transform="translate(1 1)"/>
<rect width="26" height="26" fill="black" fill-opacity="0" transform="translate(1 1)"/>
<circle cx="14" cy="14" r="14" fill="#00A6D6"/>
<path d="M14.0016 20.16C12.8603 20.16 11.831 19.9147 10.9136 19.424C9.99629 18.9227 9.27629 18.2347 8.75363 17.36C8.23096 16.4747 7.96963 15.488 7.96963 14.4C7.96963 13.312 8.23096 12.3307 8.75363 11.456C9.27629 10.5707 9.99629 9.88267 10.9136 9.392C11.831 8.89067 12.8603 8.64 14.0016 8.64C15.143 8.64 16.1723 8.89067 17.0896 9.392C18.007 9.88267 18.727 10.5653 19.2496 11.44C19.7723 12.3147 20.0336 13.3013 20.0336 14.4C20.0336 15.4987 19.7723 16.4853 19.2496 17.36C18.727 18.2347 18.007 18.9227 17.0896 19.424C16.1723 19.9147 15.143 20.16 14.0016 20.16ZM14.0016 18.336C14.7483 18.336 15.4203 18.1707 16.0176 17.84C16.615 17.4987 17.0843 17.0293 17.4256 16.432C17.767 15.824 17.9376 15.1467 17.9376 14.4C17.9376 13.6533 17.767 12.9813 17.4256 12.384C17.0843 11.776 16.615 11.3067 16.0176 10.976C15.4203 10.6347 14.7483 10.464 14.0016 10.464C13.255 10.464 12.583 10.6347 11.9856 10.976C11.3883 11.3067 10.919 11.776 10.5776 12.384C10.2363 12.9813 10.0656 13.6533 10.0656 14.4C10.0656 15.1467 10.2363 15.824 10.5776 16.432C10.919 17.0293 11.3883 17.4987 11.9856 17.84C12.583 18.1707 13.255 18.336 14.0016 18.336Z" fill="white"/>
</svg>
