<svg width="28" height="28" viewBox="0 0 28 28" fill="none" xmlns="http://www.w3.org/2000/svg">
<rect width="26" height="26" fill="black" fill-opacity="0" transform="translate(1 1)"/>
<rect width="26" height="26" fill="black" fill-opacity="0" transform="translate(1 1)"/>
<circle cx="14" cy="14" r="14" fill="#DA291C"/>
<path d="M13.9448 20.16C13.0808 20.16 12.2434 20.0373 11.4328 19.792C10.6328 19.5467 9.99808 19.2213 9.52875 18.816L10.2488 17.2C10.7074 17.5627 11.2674 17.8613 11.9288 18.096C12.6008 18.32 13.2728 18.432 13.9448 18.432C14.7768 18.432 15.3954 18.2987 15.8008 18.032C16.2168 17.7653 16.4248 17.4133 16.4248 16.976C16.4248 16.656 16.3074 16.3947 16.0728 16.192C15.8488 15.9787 15.5608 15.8133 15.2088 15.696C14.8568 15.5787 14.3768 15.4453 13.7688 15.296C12.9154 15.0933 12.2221 14.8907 11.6888 14.688C11.1661 14.4853 10.7128 14.1707 10.3288 13.744C9.95542 13.3067 9.76875 12.72 9.76875 11.984C9.76875 11.3653 9.93408 10.8053 10.2648 10.304C10.6061 9.792 11.1128 9.38667 11.7848 9.088C12.4674 8.78933 13.2994 8.64 14.2808 8.64C14.9634 8.64 15.6354 8.72533 16.2968 8.896C16.9581 9.06667 17.5288 9.312 18.0087 9.632L17.3528 11.248C16.8621 10.96 16.3501 10.7413 15.8168 10.592C15.2834 10.4427 14.7661 10.368 14.2648 10.368C13.4434 10.368 12.8301 10.5067 12.4248 10.784C12.0301 11.0613 11.8328 11.4293 11.8328 11.888C11.8328 12.208 11.9448 12.4693 12.1688 12.672C12.4034 12.8747 12.6968 13.0347 13.0488 13.152C13.4008 13.2693 13.8808 13.4027 14.4888 13.552C15.3208 13.744 16.0034 13.9467 16.5368 14.16C17.0701 14.3627 17.5234 14.6773 17.8968 15.104C18.2808 15.5307 18.4728 16.1067 18.4728 16.832C18.4728 17.4507 18.3021 18.0107 17.9608 18.512C17.6301 19.0133 17.1234 19.4133 16.4408 19.712C15.7581 20.0107 14.9261 20.16 13.9448 20.16Z" fill="white"/>
</svg>
