<svg width="32" height="32" viewBox="0 0 32 32" fill="none" xmlns="http://www.w3.org/2000/svg">
<rect width="32" height="32" fill="black" fill-opacity="0"/>
<rect width="60.5972" height="85.0394" fill="black" fill-opacity="0" transform="translate(3 32) scale(0.352778 -0.352778)"/>
<path d="M5.88904 32V19.8045H14.4219C19.6662 19.8045 22.7773 16.6441 22.7773 11.5697C22.7773 6.71827 19.3996 3.60249 14.4664 3.60249H4.64461V32H3V2H14.4664C20.3775 2 24.3773 5.69433 24.3773 11.5697C24.3773 17.6681 20.7331 21.4064 14.4219 21.4064H7.53365V32H5.88904ZM5.88904 18.6914V4.71499H14.3335C18.689 4.71499 21.4883 7.43063 21.4883 11.6583C21.4883 16.2434 19.044 18.6914 14.2889 18.6914H5.88904ZM14.2889 17.1335C17.9777 17.1335 19.8443 15.1309 19.8443 11.6583C19.8443 8.40932 17.7111 6.22828 14.3335 6.22828H7.53365V17.1335H14.2889Z" fill="white"/>
</svg>
