<svg width="42" height="26" viewBox="0 0 42 26" fill="none" xmlns="http://www.w3.org/2000/svg">
<rect width="42" height="26" fill="black" fill-opacity="0"/>
<rect width="42" height="26" fill="black" fill-opacity="0"/>
<rect width="42" height="26" rx="13" fill="#79BC43"/>
<rect width="70.944" height="55.902" fill="black" fill-opacity="0" transform="translate(8.42419 22.9554) scale(0.352778 -0.352778)"/>
<path d="M33.4517 9.14561V8.07246C32.9641 7.99908 32.472 8.04353 31.9915 8.16771C31.39 8.32328 30.5 8.70534 29.2257 9.71499V16.453H30.2763V10.2064C30.7695 9.84763 31.3149 9.52061 31.8656 9.31529C32.406 9.1135 32.9504 9.02954 33.4517 9.14561ZM33.4517 7.24625V6.1731C32.7839 6.10889 32.1538 6.19039 31.5999 6.33679C31.1314 6.46061 30.6746 6.64935 30.2763 6.84726V6.25988H29.2257V8.77942C29.7521 8.31093 30.6333 7.68087 31.7319 7.38313C32.2744 7.23637 32.8572 7.17146 33.4517 7.24625ZM27.3585 16.453H28.4091V6.25988H27.3585V16.453ZM26.3146 13.1232C26.3146 7.93911 23.3329 3.23446 17.3421 3.23446C11.3247 3.23446 8.42419 7.93911 8.42419 13.0667C8.42419 18.2508 11.3791 22.9554 17.3967 22.9554C23.4141 22.9554 26.3146 18.2508 26.3146 13.1232ZM25.2845 13.1232C25.2845 17.7153 22.7092 21.9416 17.3967 21.9416C12.0567 21.9416 9.4543 17.7153 9.4543 13.0667C9.4543 8.47462 12.0296 4.24834 17.3421 4.24834C22.6821 4.24834 25.2845 8.47462 25.2845 13.1232ZM24.4442 13.095C24.4442 9.0941 22.33 4.95284 17.3421 4.95284C12.3548 4.95284 10.2946 9.06623 10.2946 13.095C10.2946 17.0955 12.4088 21.2371 17.3967 21.2371C22.384 21.2371 24.4442 17.124 24.4442 13.095ZM23.4141 13.095C23.4141 16.6164 21.598 20.2228 17.3967 20.2228C13.168 20.2228 11.3247 16.5603 11.3247 13.095C11.3247 9.57317 13.1408 5.96708 17.3421 5.96708C21.5712 5.96708 23.4141 9.62962 23.4141 13.095Z" fill="white"/>
</svg>
