<svg width="32" height="32" viewBox="0 0 32 32" fill="none" xmlns="http://www.w3.org/2000/svg">
<rect width="32" height="32" fill="black" fill-opacity="0"/>
<path d="M7.53301 14.3732V6.22892H14.9099C17.6659 6.22892 19.3996 7.78616 19.3996 10.368C19.3996 13.0384 17.5775 14.3732 14.8666 14.3732H7.53301ZM7.53301 27.7704V18.513H14.5549C18.5541 18.513 20.91 20.0262 20.91 23.0974C20.91 26.3024 18.9104 27.7704 14.7769 27.7704H7.53301ZM15.0887 32C20.6886 32 25.4875 29.3736 25.4875 23.2306C25.4875 19.4037 23.5325 17.1774 20.91 16.1095C22.7773 14.8639 23.9772 12.8606 23.9772 10.1896C23.9772 4.49262 19.5319 2 15.3107 2H3V32H15.0887ZM4.64461 30.3969V3.60314H15.3107C18.6883 3.60314 22.3326 5.64972 22.3326 10.1896C22.3326 13.4398 20.4659 15.8865 17.4878 16.4211C20.9997 16.5989 23.8436 19.2253 23.8436 23.2306C23.8436 28.2165 19.7546 30.3969 15.0887 30.3969H4.64461ZM14.7769 29.2844C19.9773 29.2844 22.5546 27.4601 22.5546 23.0974C22.5546 18.9137 19.3551 17.0003 14.5549 17.0003H5.88839V29.2844H14.7769ZM14.8666 15.9764C18.5541 15.9764 21.0442 14.0623 21.0442 10.368C21.0442 6.80747 18.6883 4.71564 14.9099 4.71564H5.88839V15.9764H14.8666Z" fill="white"/>
</svg>
