<svg width="42" height="26" viewBox="0 0 42 26" fill="none" xmlns="http://www.w3.org/2000/svg">
<rect width="42" height="26" fill="black" fill-opacity="0" transform="translate(0 0.000244141)"/>
<rect width="42" height="26" fill="black" fill-opacity="0" transform="translate(0 0.000244141)"/>
<rect y="0.000244141" width="42" height="26" rx="13" fill="#6C3F98"/>
<rect width="33.12" height="46.409" fill="black" fill-opacity="0" transform="translate(16 21.3721) scale(0.352778 -0.352778)"/>
<path d="M17.579 21.3721V14.7166H22.2428C25.1091 14.7166 26.8095 12.9918 26.8095 10.2225C26.8095 7.57493 24.9634 5.87454 22.2671 5.87454H16.8989V21.3721H16V5.00001H22.2671C25.4978 5.00001 27.684 7.01613 27.684 10.2225C27.684 13.5506 25.6922 15.5907 22.2428 15.5907H18.4779V21.3721H17.579ZM17.579 14.1091V6.48167H22.1944C24.575 6.48167 26.105 7.96369 26.105 10.2709C26.105 12.7731 24.769 14.1091 22.1701 14.1091H17.579ZM22.1701 13.2589C24.1862 13.2589 25.2064 12.166 25.2064 10.2709C25.2064 8.4978 24.0405 7.30753 22.1944 7.30753H18.4779V13.2589H22.1701Z" fill="white"/>
</svg>
