<svg width="42" height="26" viewBox="0 0 42 26" fill="none" xmlns="http://www.w3.org/2000/svg">
<rect width="42" height="26" fill="black" fill-opacity="0"/>
<rect width="42" height="26" fill="black" fill-opacity="0"/>
<rect width="42" height="26" rx="13" fill="#F58220"/>
<rect width="16.3717" height="16.3721" fill="black" fill-opacity="0" transform="translate(12.7569 4.90918)"/>
<rect width="37.802" height="37.802" fill="black" fill-opacity="0" transform="translate(14.2749 19.7629) scale(0.352778 -0.352778)"/>
<path d="M20.9428 6.42723C17.2661 6.42723 14.2749 9.41844 14.2749 13.0951C14.2749 16.7717 17.2661 19.7629 20.9428 19.7629C24.6194 19.7629 27.6106 16.7717 27.6106 13.0951C27.6106 9.41844 24.6194 6.42723 20.9428 6.42723ZM20.9428 18.7984C17.7981 18.7984 15.2394 16.2401 15.2394 13.0951C15.2394 9.95043 17.7981 7.39173 20.9428 7.39173C24.0874 7.39173 26.6461 9.95043 26.6461 13.0951C26.6461 16.2401 24.0874 18.7984 20.9428 18.7984Z" fill="white"/>
<rect width="46.408" height="46.409" fill="black" fill-opacity="0" transform="translate(12.7569 21.2812) scale(0.352778 -0.352778)"/>
<path d="M20.9428 4.90919C16.429 4.90919 12.7569 8.5816 12.7569 13.0954C12.7569 17.6088 16.429 21.2812 20.9428 21.2812C25.4565 21.2812 29.1286 17.6088 29.1286 13.0954C29.1286 8.5816 25.4565 4.90919 20.9428 4.90919ZM20.9428 20.3168C16.961 20.3168 13.7214 17.0772 13.7214 13.0954C13.7214 9.11324 16.961 5.87368 20.9428 5.87368C24.9246 5.87368 28.1641 9.11324 28.1641 13.0954C28.1641 17.0772 24.9246 20.3168 20.9428 20.3168Z" fill="white"/>
</svg>
