<svg width="42" height="26" viewBox="0 0 42 26" fill="none" xmlns="http://www.w3.org/2000/svg">
<rect width="42" height="26" fill="black" fill-opacity="0"/>
<rect width="42" height="26" fill="black" fill-opacity="0"/>
<rect width="42" height="26" rx="13" fill="#3EBCED"/>
<path d="M17.4776 11.6619V7.2173H21.5095C23.0158 7.2173 23.9634 8.06714 23.9634 9.47614C23.9634 10.9335 22.9675 11.6619 21.4858 11.6619H17.4776ZM17.4776 18.9733V13.9211H21.3154C23.5012 13.9211 24.7889 14.747 24.7889 16.423C24.7889 18.1721 23.696 18.9733 21.4368 18.9733H17.4776ZM21.6072 21.2815C24.6679 21.2815 27.2908 19.8482 27.2908 16.4957C27.2908 14.4073 26.2222 13.1923 24.7889 12.6095C25.8095 11.9297 26.4653 10.8365 26.4653 9.37877C26.4653 6.26974 24.0357 4.90943 21.7285 4.90943H15V21.2815H21.6072ZM15.8989 20.4066V5.78432H21.7285C23.5746 5.78432 25.5664 6.90121 25.5664 9.37877C25.5664 11.1525 24.5462 12.4878 22.9184 12.7795C24.8379 12.8766 26.3923 14.3099 26.3923 16.4957C26.3923 19.2167 24.1574 20.4066 21.6072 20.4066H15.8989ZM21.4368 19.7995C24.2791 19.7995 25.6878 18.8039 25.6878 16.423C25.6878 14.1399 23.939 13.0956 21.3154 13.0956H16.5787V19.7995H21.4368ZM21.4858 12.5368C23.5012 12.5368 24.8623 11.4923 24.8623 9.47614C24.8623 7.53304 23.5746 6.39145 21.5095 6.39145H16.5787V12.5368H21.4858Z" fill="white"/>
</svg>
