<svg width="151" height="20" viewBox="0 0 151 20" fill="none" xmlns="http://www.w3.org/2000/svg">
<path d="M28.146 3.8147e-06L27.207 5.281H16.81L14.971 15.681C14.595 17.806 12.75 19.354 10.592 19.354H7.907L10.395 5.281H0L0.940001 3.8147e-06H28.146Z" fill="#221E1F"/>
<path d="M46.8061 4.53415C50.3451 4.53415 51.7001 6.22015 51.1181 9.76015L50.5941 12.7451H31.9031L31.7381 13.6591C31.5441 14.7921 31.8481 15.1791 32.9821 15.1791H43.1571C44.0691 15.1791 44.3451 14.9021 44.5391 13.9911L44.5941 13.6851H50.4551L50.1791 15.1791C49.5991 18.2481 48.2711 19.3531 45.2851 19.3531H29.9121C26.4561 19.3531 25.0191 17.6121 25.6271 14.1001L26.4561 9.34515C27.0361 5.80615 28.5581 4.53415 32.0971 4.53415H46.8061ZM32.4011 9.92515H45.2571L45.3131 9.59415C45.5061 8.46015 45.2021 8.10115 44.0691 8.10115H34.1431C33.0371 8.10115 32.6501 8.43215 32.4561 9.53815L32.4011 9.92515Z" fill="#221E1F"/>
<path d="M82.4409 3.8147e-06H88.8549L86.0769 15.684C85.7009 17.807 83.8549 19.354 81.6989 19.354H79.0119L80.3119 12H65.0489L63.7499 19.354H57.3359L60.7639 3.8147e-06H67.1779L65.9889 6.691H81.2519L82.4409 3.8147e-06Z" fill="#221E1F"/>
<path d="M115.338 4.53415L112.712 19.3531H107.597L107.431 17.6951C106.519 18.3871 105.745 18.8561 105.053 19.0501C104.361 19.2431 103.338 19.3531 102.012 19.3531H93.2473C89.7353 19.3531 88.2713 17.5841 88.9063 14.0451L90.5653 4.53415H96.6203L95.1003 13.2431C94.8783 14.3771 95.2373 14.7641 96.3713 14.7641H104.721C105.634 14.7641 106.38 14.5711 106.96 14.1561L107.651 13.6311L109.283 4.53415H115.338Z" fill="#221E1F"/>
<path d="M115.39 19.354L118.016 4.534H124.155L122.179 15.68C121.802 17.806 119.954 19.354 117.796 19.354H115.39ZM118.21 3.428C118.562 1.445 120.286 3.8147e-06 122.301 3.8147e-06H124.956L124.348 3.428H118.21Z" fill="#221E1F"/>
<path d="M146.134 4.53415C149.646 4.53415 151.083 6.27615 150.447 9.78715L148.76 19.3531H143.618L143.452 17.8611C142.595 18.4971 141.849 18.8841 141.213 19.0771C140.577 19.2711 139.61 19.3531 138.337 19.3531H127.72C125.425 19.3531 124.181 17.9161 124.651 15.6211L124.927 14.0741C125.37 11.7511 126.559 10.7281 128.854 10.7281H144.226L144.392 9.81515C144.586 8.68115 144.254 8.29515 143.12 8.29515H133.61C132.696 8.29515 132.364 8.57115 132.227 9.48315L132.172 9.87015H126.31L126.503 8.68115C126.974 5.66815 128.411 4.53415 131.425 4.53415H146.134ZM140.825 15.9531C141.6 15.9531 142.236 15.7601 142.733 15.3731L143.507 14.8191L143.646 14.0451L143.756 13.4381H132.089C131.287 13.4381 131.038 13.6591 130.9 14.4601L130.817 14.8751C130.706 15.6771 130.9 15.9531 131.757 15.9531H140.825Z" fill="#221E1F"/>
</svg>
