<?xml version="1.0" encoding="UTF-8"?>
<svg width="278px" height="342px" viewBox="0 0 278 342" version="1.1" xmlns="http://www.w3.org/2000/svg" xmlns:xlink="http://www.w3.org/1999/xlink">
    <!-- Generator: Sketch 48.1 (47250) - http://www.bohemiancoding.com/sketch -->
    <title>bike</title>
    <desc>Created with Sketch.</desc>
    <defs></defs>
    <g id="Page-1" stroke="none" stroke-width="1" fill="none" fill-rule="evenodd">
        <g id="bike" fill-rule="nonzero">
            <g id="Group" fill="#F8E71C">
                <g id="Rectangle-8">
                    <g id="Vector">
                        <g id="path0_fill-link">
                            <path d="M0,22.2253281 C0,9.95062133 9.95719015,0 22.24,0 L255.76,0 C268.043323,0 278,9.95062133 278,22.2253281 L278,255.591273 C278,267.866493 268.043323,277.816602 255.76,277.816602 L89.3571123,277.816602 L22.24,277.816602 C9.95719015,277.816602 0,267.866493 0,255.591273 L0,22.2253281 Z" id="path0_fill"></path>
                        </g>
                    </g>
                </g>
                <g id="Polygon" transform="translate(85.538462, 276.744727)">
                    <g id="Vector" transform="translate(0.000000, -0.000000)">
                        <g id="path1_fill-link" transform="translate(53.500000, 32.683398) scale(-1, 1) rotate(-180.000000) translate(-53.500000, -32.683398) translate(0.000000, 0.183398)">
                            <polygon id="path1_fill" points="53.4615385 0 106.923077 64.1115234 0 64.1115234"></polygon>
                        </g>
                    </g>
                </g>
            </g>
            <path d="M169,86 C178.35,86 186,78.35 186,69 C186,59.65 178.35,52 169,52 C159.65,52 152,59.65 152,69 C152,78.35 159.65,86 169,86 Z M79.5,142 C55.7,142 37,160.48 37,184 C37,207.52 55.7,226 79.5,226 C103.3,226 122,207.52 122,184 C122,160.48 103.3,142 79.5,142 Z M79.5,213 C63.4857143,213 50,199.514286 50,183.5 C50,167.485714 63.4857143,154 79.5,154 C95.5142857,154 109,167.485714 109,183.5 C109,199.514286 95.5142857,213 79.5,213 Z M128.554622,128.75 L148.92437,108.35 L155.714286,115.15 C166.747899,126.2 181.176471,133 199,133 L199,116 C186.268908,116 176.084034,110.9 168.445378,103.25 L152.319328,87.1 C148.07563,83.7 143.831933,82 138.739496,82 C133.647059,82 129.403361,83.7 126.857143,87.1 L103.092437,110.9 C99.697479,114.3 98,118.55 98,122.8 C98,127.9 99.697479,132.15 103.092437,134.7 L130.252101,158.5 L130.252101,201 L147.226891,201 L147.226891,148.3 L128.554622,128.75 Z M198.5,142 C174.7,142 156,160.48 156,184 C156,207.52 174.7,226 198.5,226 C222.3,226 241,207.52 241,184 C241,160.48 222.3,142 198.5,142 Z M198.5,213 C182.485714,213 169,199.514286 169,183.5 C169,167.485714 182.485714,154 198.5,154 C214.514286,154 228,167.485714 228,183.5 C228,199.514286 214.514286,213 198.5,213 Z" id="Shape" fill="#000"></path>
        </g>
    </g>
</svg>