<?xml version="1.0" encoding="UTF-8"?>
<svg width="208px" height="177px" viewBox="0 0 208 177" version="1.1" xmlns="http://www.w3.org/2000/svg" xmlns:xlink="http://www.w3.org/1999/xlink">
    <!-- Generator: Sketch 48.1 (47250) - http://www.bohemiancoding.com/sketch -->
    <title>Shape</title>
    <desc>Created with Sketch.</desc>
    <defs></defs>
    <g id="Page-1" stroke="none" stroke-width="1" fill="none" fill-rule="evenodd">
        <path d="M134.5,35 C144.125,35 152,27.125 152,17.5 C152,7.875 144.125,0 134.5,0 C124.875,0 117,7.875 117,17.5 C117,27.125 124.875,35 134.5,35 Z M43.5,92 C19.14,92 0,110.7 0,134.5 C0,158.3 19.14,177 43.5,177 C67.86,177 87,158.3 87,134.5 C87,110.7 67.86,92 43.5,92 Z M43,164 C26.7142857,164 13,150.285714 13,134 C13,117.714286 26.7142857,104 43,104 C59.2857143,104 73,117.714286 73,134 C73,150.285714 59.2857143,164 43,164 Z M93.1596639,78.5357143 L113.932773,57.7928571 L120.857143,64.7071429 C132.109244,75.9428571 146.823529,82.8571429 165,82.8571429 L165,65.5714286 C152.016807,65.5714286 141.630252,60.3857143 133.840336,52.6071429 L117.394958,36.1857143 C113.067227,32.7285714 108.739496,31 103.546218,31 C98.3529412,31 94.0252101,32.7285714 91.4285714,36.1857143 L67.1932773,60.3857143 C63.7310924,63.8428571 62,68.1642857 62,72.4857143 C62,77.6714286 63.7310924,81.9928571 67.1932773,84.5857143 L94.8907563,108.785714 L94.8907563,152 L112.201681,152 L112.201681,98.4142857 L93.1596639,78.5357143 Z M164.5,92 C140.14,92 121,110.7 121,134.5 C121,158.3 140.14,177 164.5,177 C188.86,177 208,158.3 208,134.5 C208,110.7 188.86,92 164.5,92 Z M165,164 C148.714286,164 135,150.285714 135,134 C135,117.714286 148.714286,104 165,104 C181.285714,104 195,117.714286 195,134 C195,150.285714 181.285714,164 165,164 Z" id="Shape" fill="#F8E71C" fill-rule="nonzero"></path>
    </g>
</svg>