<svg width="28" height="34" xmlns="http://www.w3.org/2000/svg"><path fill="#D35400" d="M0 2.2C0 1 1 0 2.2 0h23.6C27 0 28 1 28 2.2v23.6c0 1.2-1 2.2-2.2 2.2H2.2C1 28 0 27 0 25.8V2.2zM13.8 34l4.7-6H9l4.8 6z"/><path fill="#FFF" d="M20.7 21.5c-1.2 0-2.3-.4-3.3-1.1a5.7 5.7 0 01-6.7 0c-1 .7-2.2 1-3.3 1H5.7v1.7h1.7c1.1 0 2.3-.3 3.3-.8 2.1 1 4.6 1 6.7 0 1 .6 2.2.8 3.3.8h1.7v-1.6h-1.7zM7.3 19.8c1.4 0 2.6-.7 3.4-1.7.8 1 2 1.7 3.3 1.7 1.4 0 2.6-.7 3.4-1.7.8 1 2 1.7 3.3 1.7l1.6-5.6v-.6a.8.8 0 00-.5-.4l-1.1-.4V9c0-1-.7-1.7-1.7-1.7h-2.5V4.8h-5v2.5H9c-.9 0-1.6.8-1.6 1.7v3.8l-1.1.4a.8.8 0 00-.6 1l1.6 5.6zM9 9h10v3.3l-5-1.7-5 1.7V9z"/></svg>
