<svg width="42" height="42" xmlns="http://www.w3.org/2000/svg" xmlns:xlink="http://www.w3.org/1999/xlink">
  <path fill="#00AEEF" d="M42 21c0 11.598-9.402 21-21 21S0 32.598 0 21 9.402 0 21 0s21 9.402 21 21z"/>
  <path transform="translate(14.443 10.406)" fill="#FFF" d="M4.883 10.836h1.606c1.502 0 2.625-.294 3.37-.882.746-.599 1.119-1.465 1.119-2.599 0-1.144-.315-1.99-.945-2.536C9.413 4.274 8.437 4 7.103 4h-2.22v6.836zm11.024-3.654c0 2.478-.777 4.373-2.33 5.686-1.544 1.312-3.744 1.968-6.6 1.968H4.882v8.19H0V0h7.355c2.793 0 4.914.604 6.363 1.811 1.46 1.197 2.19 2.987 2.19 5.371z"/>
</svg>