<?xml version="1.0" encoding="iso-8859-1"?>
<!-- Generator: Adobe Illustrator 19.0.0, SVG Export Plug-In . SVG Version: 6.00 Build 0)  -->
<svg version="1.1" id="Layer_1" xmlns="http://www.w3.org/2000/svg" xmlns:xlink="http://www.w3.org/1999/xlink" x="0px" y="0px"
	 viewBox="0 0 512 512" style="enable-background:new 0 0 512 512;" xml:space="preserve">
<g>
	<g>
		<path d="M338.281,388.616H182.854c-5.053,0-9.143,4.094-9.143,9.143s4.089,9.143,9.143,9.143h155.427
			c5.054,0,9.143-4.094,9.143-9.143S343.334,388.616,338.281,388.616z"/>
	</g>
</g>
<g>
	<g>
		<path d="M207.604,226.644c-3.571-3.571-9.357-3.571-12.929,0l-91.427,91.427c-3.571,3.571-3.571,9.357,0,12.929
			c1.786,1.786,4.125,2.679,6.464,2.679c2.339,0,4.679-0.893,6.464-2.679l91.427-91.427
			C211.175,236.001,211.175,230.215,207.604,226.644z"/>
	</g>
</g>
<g>
	<g>
		<path d="M161.89,217.501c-3.571-3.571-9.357-3.571-12.929,0l-45.714,45.714c-3.571,3.571-3.571,9.357,0,12.929
			c1.786,1.786,4.125,2.679,6.464,2.679c2.339,0,4.679-0.893,6.464-2.679l45.714-45.714
			C165.462,226.858,165.462,221.072,161.89,217.501z"/>
	</g>
</g>
<g>
	<g>
		<path d="M511.877,12.236c-0.786-4.973-5.411-8.424-10.473-7.58L281.366,39.862c-4.105-9.984-13.924-17.037-25.37-17.037
			c-15.125,0-27.428,12.303-27.428,27.428c0,0.451,0.047,0.891,0.067,1.337L7.696,86.94c-4.982,0.795-8.375,5.487-7.58,10.473
			c0.714,4.495,4.598,7.696,9.018,7.696c0.473,0,0.964-0.036,1.455-0.116l225.91-36.061c2.975,3.189,6.844,5.661,11.415,7.148
			v38.253h-19.346c-5.053,0-8.082,4.012-8.082,9.061v18.367H91.472c-15.152,0-26.413,12.222-26.413,27.347v18.285v173.712v82.361
			c0,15.064,11.428,27.325,27.428,27.35v9.145c0,15.125,11.279,27.51,26.439,27.51h283.282c15.161,0,28.56-12.385,28.56-27.51
			v-9.145c13.714-0.025,27.428-12.286,27.428-27.35v-82.361V187.394v-18.285c0-15.125-13.382-27.347-28.533-27.347H293.627v-18.367
			c0-5.049-5.149-9.061-10.203-9.061h-17.225V76.081c6.857-2.896,14.024-9.523,16.562-17.841l221.801-35.531
			C509.544,21.914,512.671,17.222,511.877,12.236z M246.853,50.253c0-5.04,4.098-9.143,9.143-9.143c5.045,0,9.143,4.103,9.143,9.143
			c0,5.04-4.098,9.143-9.143,9.143C250.952,59.396,246.853,55.293,246.853,50.253z M412.483,479.962
			c0,5.04-5.194,9.224-10.274,9.224H118.926c-5.17,0-8.154-4.099-8.154-9.224v-9.061h301.71V479.962z M439.911,443.467
			c0,5-5.185,9.148-10.248,9.148h-9.098H100.569h-9.098c-5.063,0-8.127-4.148-8.127-9.148v-73.136h356.567V443.467z
			 M439.911,352.045H83.344V196.618h356.567V352.045z M429.664,160.047c5.152,0,10.248,3.936,10.248,9.061v9.224H83.344v-9.224
			c0-5.04,3.065-9.061,8.127-9.061h137.096h54.856H429.664z M275.342,132.619v9.143h-36.571v-9.143H275.342z"/>
	</g>
</g>
<g>
</g>
<g>
</g>
<g>
</g>
<g>
</g>
<g>
</g>
<g>
</g>
<g>
</g>
<g>
</g>
<g>
</g>
<g>
</g>
<g>
</g>
<g>
</g>
<g>
</g>
<g>
</g>
<g>
</g>
</svg>
