<svg width="28" height="34" viewBox="0 0 28 34" version="1.1" xmlns="http://www.w3.org/2000/svg" xmlns:xlink="http://www.w3.org/1999/xlink">
<title>train</title>
<desc>Created using Figma</desc>
<g id="Canvas" transform="translate(-542 -958)">
<g id="train">
<g id="Group">
<g id="Rectangle 8">
<use xlink:href="#path0_fill" transform="translate(542 958)" fill="#219653"/>
</g>
<g id="Polygon">
<use xlink:href="#path1_fill" transform="matrix(1 0 0 -1 551 992)" fill="#219653"/>
</g>
</g>
<g id="ic_directions_subway_black_24px">
<g id="Vector">
<use xlink:href="#path2_fill" transform="translate(548 963)" fill="#FFFFFF"/>
</g>
</g>
</g>
</g>
<defs>
<path id="path0_fill" d="M 0 2.24C 0 1.00288 1.00288 0 2.24 0L 25.76 0C 26.9971 0 28 1.00288 28 2.24L 28 25.76C 28 26.9971 26.9971 28 25.76 28L 2.24 28C 1.00288 28 0 26.9971 0 25.76L 0 2.24Z"/>
<path id="path1_fill" d="M 4.76314 0L 9.52628 6L -3.91703e-09 6L 4.76314 0Z"/>
<path id="path2_fill" d="M 8 0C 3.58 0 0 0.5 0 4L 0 13.5C 0 15.43 1.57 17 3.5 17L 2 18.5L 2 19L 14 19L 14 18.5L 12.5 17C 14.43 17 16 15.43 16 13.5L 16 4C 16 0.5 12.42 0 8 0ZM 3.5 15C 2.67 15 2 14.33 2 13.5C 2 12.67 2.67 12 3.5 12C 4.33 12 5 12.67 5 13.5C 5 14.33 4.33 15 3.5 15ZM 7 9L 2 9L 2 4L 7 4L 7 9ZM 12.5 15C 11.67 15 11 14.33 11 13.5C 11 12.67 11.67 12 12.5 12C 13.33 12 14 12.67 14 13.5C 14 14.33 13.33 15 12.5 15ZM 14 9L 9 9L 9 4L 14 4L 14 9Z"/>
</defs>
</svg>
