<svg width="54" height="54" viewBox="0 0 54 54" version="1.1" xmlns="http://www.w3.org/2000/svg" xmlns:xlink="http://www.w3.org/1999/xlink">
<title>bearing</title>
<desc>Created using Figma</desc>
<g id="Canvas" transform="translate(60 179)">
<g id="bearing">
<g id="Rectangle">
<mask id="mask0_outline_ins">
<use xlink:href="#path0_fill" fill="white" transform="translate(-60 -179)"/>
</mask>
<g mask="url(#mask0_outline_ins)">
</g>
</g>
<g id="Vector" filter="url(#filter0_d)">
<use xlink:href="#path2_fill" transform="translate(-40 -179)"/>
</g>
</g>
</g>
<defs>
<filter id="filter0_d" filterUnits="userSpaceOnUse" x="-41" y="-179" width="16" height="11" color-interpolation-filters="sRGB">
<feFlood flood-opacity="0" result="BackgroundImageFix"/>
<feColorMatrix in="SourceAlpha" type="matrix" values="0 0 0 0 0 0 0 0 0 0 0 0 0 0 0 0 0 0 255 0"/>
<feOffset dx="0" dy="1"/>
<feGaussianBlur stdDeviation="0.5"/>
<feColorMatrix type="matrix" values="0 0 0 0 1 0 0 0 0 1 0 0 0 0 1 0 0 0 1 0"/>
<feBlend mode="normal" in2="BackgroundImageFix" result="effect1_dropShadow"/>
<feBlend mode="normal" in="SourceGraphic" in2="effect1_dropShadow" result="shape"/>
</filter>
<path id="path0_fill" d="M 0 0L 54 0L 54 54L 0 54L 0 0Z"/>
<path id="path1_stroke_2x" d="M 0 0L 0 -1L -1 -1L -1 0L 0 0ZM 54 0L 55 0L 55 -1L 54 -1L 54 0ZM 54 54L 54 55L 55 55L 55 54L 54 54ZM 0 54L -1 54L -1 55L 0 55L 0 54ZM 0 1L 54 1L 54 -1L 0 -1L 0 1ZM 53 0L 53 54L 55 54L 55 0L 53 0ZM 54 53L 0 53L 0 55L 54 55L 54 53ZM 1 54L 1 0L -1 0L -1 54L 1 54Z"/>
<path id="path2_fill" d="M 1.58625 8.33625L 6.75 3.18375L 11.9137 8.33625L 13.5 6.75L 6.75 0L 0 6.75L 1.58625 8.33625Z"/>
</defs>
</svg>
