<svg xmlns="http://www.w3.org/2000/svg" width="14" height="15" viewBox="0 0 14 15" fill="#fff"><path d="M2.828 3.265l.646.47 2.562-1.86v4.057h.917V1.875l2.562 1.86.646-.47L6.496.6 2.828 3.264z"/><g><path d="M.54 7.575h1.907c.885 0 1.524.13 1.916.387.396.257.594.664.594 1.22 0 .376-.097.688-.29.937-.194.25-.472.404-.835.47v.043c.45.086.782.254.993.506.214.25.32.587.32 1.014 0 .58-.202 1.03-.606 1.36-.403.324-.963.487-1.68.487H.54V7.576zm1.05 2.655H2.6c.44 0 .76-.07.963-.207.203-.14.304-.378.304-.712 0-.3-.11-.52-.33-.654-.217-.133-.562-.203-1.037-.203h-.91v1.777zm0 .852v2.034h1.117c.44 0 .77-.084.993-.25.225-.17.338-.437.338-.8 0-.334-.114-.582-.343-.743-.228-.16-.575-.24-1.04-.24H1.59zM5.94 14V7.575h1.052V14h-1.05zM10.78 10.515h2.365v3.226c-.387.127-.76.216-1.117.27-.354.052-.738.08-1.15.08-.974 0-1.724-.29-2.25-.863-.528-.577-.792-1.39-.792-2.44 0-1.033.297-1.842.892-2.425.595-.587 1.414-.88 2.457-.88.67 0 1.306.13 1.907.388l-.37.874c-.52-.24-1.042-.36-1.562-.36-.685 0-1.227.215-1.626.646-.398.43-.597 1.02-.597 1.766 0 .786.178 1.383.536 1.793.36.407.878.61 1.552.61.34 0 .703-.04 1.09-.127v-1.657H10.78v-.9z"/></g></svg>