<svg xmlns="http://www.w3.org/2000/svg" height="24" viewBox="0 0 1024 1024"  fill="#273D52">
	<g id="Layer_3"><g class="cls-2" opacity="0.5"><path class="cls-3" d="M337,0H217V217.67l60.64-84,59.36,84Z"/><rect class="cls-3" x="302.4" y="562.11" width="138.75" height="120" transform="translate(548.79 -80.67) rotate(45)"/><rect class="cls-3" x="606.92" y="923.83" width="245.42" height="120" transform="translate(909.37 -227.77) rotate(45)"/><polygon class="cls-3" points="176.33 321.5 0 321.5 0 201.5 217.03 201.5 199.67 281 176.33 321.5"/><path class="cls-3" d="M218.57,424H337c-1.33,12,2.81,37.07,13.31,64.33,7.85,20.37,14.4,32.94,21.68,40.47L468.5,642.06l-186.83-25.2a273.19,273.19,0,0,1-41-66.33C218,498.74,216.29,461.63,217,434.39Z"/><polygon class="cls-3" points="395 321.5 620.33 321.5 620.33 201.5 343 201.5 365.18 281 395 321.5"/><polygon class="cls-3" points="917.44 321.5 1023.33 321.5 1023.33 201.5 893 201.5 903.42 281 917.44 321.5"/></g></g><g id="Layer_2"><path class="cls-3" d="M642.92,672V893.83H421.08V672H642.92m45-45H376.08V938.83H687.92V627Z"/><path class="cls-3" d="M761.55,136.24A125.26,125.26,0,1,1,673,172.93a124.44,124.44,0,0,1,88.57-36.69m0-45A170.26,170.26,0,1,0,931.81,261.5,170.26,170.26,0,0,0,761.55,91.24Z"/><path class="cls-3" d="M278.56,158.15l132,228.62h-264l132-228.62m0-90L68.63,431.76H488.49L278.56,68.15Z"/></g>
	</svg>