<svg width="250" height="250" viewBox="0 0 250 250" version="1.1" xmlns="http://www.w3.org/2000/svg" xmlns:xlink="http://www.w3.org/1999/xlink">
<title>ferry-selection</title>
<desc>Created using Figma</desc>
<g id="Canvas" transform="translate(383 1690)">
<g id="ferry-selection">
<g id="Canvas">
<g id="ferry selection">
<g id="layer1">
<g id="Ellipse">
<g id="Vector">
<use xlink:href="#path0_fill" transform="translate(-383 -1690)" fill="#FFFFFF"/>
</g>
<mask id="mask0_alpha" mask-type="alpha">
<g id="mask0 outline ins">
<g id="Vector">
<use xlink:href="#path0_fill" transform="translate(-383 -1690)" fill="#FFFFFF"/>
</g>
</g>
</mask>
<g id="Group" mask="url(#mask0_alpha)">
<g id="Vector">
<use xlink:href="#path1_fill" transform="translate(-413 -1720)" fill="#FFFFFF"/>
</g>
</g>
</g>
<g id="path21">
<g id="Vector">
<use xlink:href="#path2_fill" transform="translate(-363.054 -1670.05)" fill="#009D4C"/>
</g>
</g>
</g>
</g>
</g>
</g>
</g>
<defs>
<path id="path0_fill" d="M 250 125C 250 194.036 194.036 250 125 250C 55.9644 250 0 194.036 0 125C 0 55.9644 55.9644 0 125 0C 194.036 0 250 55.9644 250 125Z"/>
<path id="path1_fill" d="M 250 155C 250 207.467 207.467 250 155 250L 155 310C 240.604 310 310 240.604 310 155L 250 155ZM 155 250C 102.533 250 60 207.467 60 155L 0 155C 0 240.604 69.3959 310 155 310L 155 250ZM 60 155C 60 102.533 102.533 60 155 60L 155 0C 69.3959 0 0 69.3959 0 155L 60 155ZM 155 60C 207.467 60 250 102.533 250 155L 310 155C 310 69.3959 240.604 0 155 0L 155 60Z"/>
<path id="path2_fill" d="M 99.7076 209.983C 99.3981 209.959 98.1636 209.871 96.9643 209.787C 88.7206 209.21 79.0663 207.223 71.0076 204.444C 37.2093 192.789 11.5382 164.706 2.99364 130.039C 0.172801 118.594 -0.671773 106.323 0.533197 94.2893C 2.47443 74.9032 10.0649 56.0672 22.2132 40.4897C 27.1866 34.1124 34.1143 27.1847 40.4916 22.2113C 54.8691 10.9988 71.8274 3.72644 89.7189 1.10067C 98.1518 -0.136949 107.334 -0.337096 115.816 0.531817C 132.427 2.23338 148.529 7.95815 162.454 17.1129C 188.133 33.9955 205.073 60.7822 209.157 90.9661C 210.213 98.7737 210.367 107.932 209.572 115.674C 208.149 129.523 204.037 142.859 197.448 154.996C 189.359 169.894 177.566 182.844 163.473 192.303C 147.84 202.797 130.145 208.761 111.174 209.93C 109.096 210.058 101.142 210.095 99.7076 209.983ZM 96.4146 173.028C 96.8011 172.824 97.1529 172.493 97.3488 172.149L 97.6631 171.597L 97.6651 147.007C 97.6671 127.467 97.7035 122.404 97.8432 122.351C 97.9399 122.314 107.262 122.268 118.559 122.25L 139.1 122.216L 139.617 121.894C 139.924 121.703 140.255 121.323 140.43 120.962C 140.722 120.359 140.725 120.248 140.686 111.225L 140.647 102.097L 140.317 101.566C 139.631 100.462 141.561 100.558 118.419 100.48L 97.7378 100.409L 97.7378 83.5972L 97.7378 66.7851L 120.318 66.7149C 142.768 66.645 142.901 66.6429 143.391 66.3559C 143.661 66.1972 144.041 65.7857 144.235 65.4415L 144.586 64.8156L 144.586 55.6006C 144.586 50.5324 144.539 46.2164 144.481 46.0096C 144.33 45.4711 143.691 44.7612 143.155 44.5376C 142.772 44.3773 136.911 44.3457 107.52 44.3457L 72.3441 44.3457L 72.3441 107.941C 72.3441 176.144 72.3016 172.062 73.0188 172.7C 73.7374 173.34 73.7799 173.343 85.0893 173.349L 95.7945 173.355L 96.4146 173.028Z"/>
</defs>
</svg>
