<svg width="250" height="250" viewBox="0 0 250 250" version="1.1" xmlns="http://www.w3.org/2000/svg" xmlns:xlink="http://www.w3.org/1999/xlink">
<title>lightrail-selection</title>
<desc>Created using Figma</desc>
<g id="Canvas" transform="translate(1383 1690)">
<g id="lightrail-selection">
<g id="Canvas">
<g id="light rail selection">
<g id="layer1">
<g id="Ellipse">
<g id="Vector">
<use xlink:href="#path0_fill" transform="translate(-1383 -1690)" fill="#FFFFFF"/>
</g>
<mask id="mask0_alpha" mask-type="alpha">
<g id="mask0 outline ins">
<g id="Vector">
<use xlink:href="#path0_fill" transform="translate(-1383 -1690)" fill="#FFFFFF"/>
</g>
</g>
</mask>
<g id="Group" mask="url(#mask0_alpha)">
<g id="Vector">
<use xlink:href="#path1_fill" transform="translate(-1413 -1720)" fill="#FFFFFF"/>
</g>
</g>
</g>
<g id="path21">
<g id="Vector">
<use xlink:href="#path2_fill" transform="translate(-1363.05 -1670.05)" fill="#E4012E"/>
</g>
</g>
</g>
</g>
</g>
</g>
</g>
<defs>
<path id="path0_fill" d="M 250 125C 250 194.036 194.036 250 125 250C 55.9644 250 0 194.036 0 125C 0 55.9644 55.9644 0 125 0C 194.036 0 250 55.9644 250 125Z"/>
<path id="path1_fill" d="M 250 155C 250 207.467 207.467 250 155 250L 155 310C 240.604 310 310 240.604 310 155L 250 155ZM 155 250C 102.533 250 60 207.467 60 155L 0 155C 0 240.604 69.3959 310 155 310L 155 250ZM 60 155C 60 102.533 102.533 60 155 60L 155 0C 69.3959 0 0 69.3959 0 155L 60 155ZM 155 60C 207.467 60 250 102.533 250 155L 310 155C 310 69.3959 240.604 0 155 0L 155 60Z"/>
<path id="path2_fill" d="M 99.775 209.984C 96.0088 209.731 94.3772 209.585 92.0372 209.291C 74.9594 207.149 59.1244 201.046 44.8583 191.109C 36.9449 185.597 28.9111 178.026 22.7364 170.261C 10.3086 154.633 2.56121 135.637 0.53072 115.815C -0.17706 108.906 -0.176893 101.394 0.531142 94.2902C 2.4645 74.8945 10.0389 56.0975 22.2101 40.4906C 27.2034 34.0878 34.0844 27.2115 40.5543 22.1591C 54.8119 11.025 71.8622 3.72181 89.7159 1.10158C 98.1592 -0.137564 107.321 -0.337255 115.813 0.532728C 135.634 2.56317 154.631 10.311 170.259 22.7384C 175.018 26.5232 180.954 32.2227 184.61 36.518C 199.274 53.7487 207.637 73.5459 209.728 95.9785C 210.032 99.2422 210.151 107.342 209.945 110.821C 209.172 123.889 206.318 135.748 201.107 147.54C 193.16 165.523 179.935 181.253 163.47 192.304C 147.837 202.798 130.141 208.762 111.171 209.931C 109.101 210.058 101.418 210.094 99.775 209.984ZM 144.714 169.239C 145.06 169.042 145.389 168.691 145.597 168.297L 145.928 167.67L 145.889 158.238C 145.851 149.096 145.841 148.792 145.569 148.329C 145.414 148.066 145.108 147.718 144.89 147.555L 144.493 147.259L 118.722 147.223C 94.7154 147.191 92.9397 147.172 92.7759 146.95C 92.6359 146.761 92.6 136.027 92.6 94.3855C 92.6 42.7458 92.5964 42.0526 92.3256 41.6144C 92.1747 41.3702 91.8 41.0292 91.493 40.8567L 90.9349 40.543L 79.8333 40.5807L 68.7316 40.6184L 68.2349 40.9973C 67.9617 41.2057 67.6342 41.5951 67.5073 41.8627C 67.2944 42.3114 67.2765 47.2762 67.2765 105.86C 67.2765 140.79 67.3187 169.412 67.3702 169.464C 67.4218 169.515 84.721 169.557 105.813 169.555L 144.162 169.553L 144.714 169.239Z"/>
</defs>
</svg>
