<svg xmlns="http://www.w3.org/2000/svg" width="17" height="17" viewBox="0 0 17 17" xmlns:xlink="http://www.w3.org/1999/xlink">
	<title>Auckland Transport Logo</title>
	<path fill="#EE2426" transform="matrix(.35278 0 0 -.35278 10.364 3.75)" d="M0 5.377C3.104 4.29 5.84 2.42 7.97 0h5.23C10.474 4.236 6.404 7.523 1.59 9.26L0 5.377z"/>
	<path fill="#7AAF2B" transform="matrix(.35278 0 0 -.35278 4.743 16.317)" d="M0 2.123l1.592 3.882C4.045 4.842 6.785 4.188 9.68 4.188c2.193 0 4.297.377 6.255 1.063l1.59-3.882C15.076.484 12.436 0 9.68 0 6.222 0 2.945.762 0 2.123z"/>
	<path fill="#4E8EC5" transform="matrix(.35278 0 0 -.35278 1.296 15.568)" d="M9.773 0l1.592 3.882C9.015 4.994 6.93 6.574 5.23 8.505H0C2.373 4.82 5.763 1.853 9.773 0z"/>
	<path fill="#22384E" transform="matrix(.35278 0 0 -.35278 0 11.863)" d="M12.77 8.977l1.817 4.458L16.4 8.977h-3.63zm.41 12.017c-.328-.02-1.58-.17-2.212-1.26L4.986 5.052c-.518 1.726-.798 3.555-.798 5.45 0 10.46 8.48 18.938 18.938 18.938 2.192 0 4.295-.377 6.253-1.063l1.59 3.884c-2.45.882-5.09 1.366-7.844 1.366C10.354 33.626 0 23.272 0 10.5 0 6.716.913 3.15 2.523 0l6.59.004 1.556 3.817h7.827l.804-1.965c.43-1.087 1.477-1.85 2.706-1.85h4.33l-8.603 20.99H13.18z"/>
	<path fill="#22384E" transform="matrix(.35278 0 0 -.35278 8.533 15.835)" d="M19.54 32.26H3.835c-.356-.026-1.813-.204-2.37-1.577L0 27.096h4.692L1.248 18.77l3.078-7.506 6.544 15.832h6.24c.496-1.693.765-3.483.765-5.337 0-8.267-5.298-15.292-12.682-17.876L6.783 0c8.91 3.214 15.28 11.742 15.28 21.76 0 3.782-.913 7.348-2.523 10.5z"/>
</svg>