<svg xmlns="http://www.w3.org/2000/svg" width="14" height="15" viewBox="0 0 14 15" fill="#fff">
<path transform="rotate(-90 4.38 1.552)" d="M2.667 0l-.47.646 1.86 2.562H0v.917h4.057l-1.86 2.562.47.646 2.666-3.666L2.667 0z"/>
<g transform="translate(.54 7.483)">
<path id="b" d="M0 .092h1.907c.885 0 1.524.13 1.916.387.396.257.594.664.594 1.22 0 .376-.097.688-.29.937-.194.25-.472.405-.835.47v.044c.45.086.782.254.993.506.214.25.32.588.32 1.015 0 .58-.202 1.03-.606 1.36-.402.324-.962.487-1.68.487H0V.092zm1.05 2.655h1.01c.44 0 .76-.07.963-.207.203-.14.304-.378.304-.712 0-.302-.11-.52-.33-.655C2.78 1.04 2.435.97 1.96.97h-.91v1.777zm0 .852v2.034h1.117c.44 0 .77-.084.993-.25.225-.17.338-.437.338-.8 0-.334-.114-.582-.343-.743-.228-.16-.575-.24-1.04-.24H1.05z"/>
<path d="M5.4 6.517V.092h1.052v6.425h-1.05z"/>
<path d="M10.24 3.032h2.365v3.226c-.387.126-.76.215-1.117.268-.354.053-.738.08-1.15.08-.974 0-1.724-.288-2.25-.862-.528-.577-.792-1.39-.792-2.44 0-1.033.297-1.842.892-2.425C8.783.292 9.602 0 10.645 0c.67 0 1.306.13 1.907.387l-.37.874C11.663 1.02 11.14.9 10.62.9c-.685 0-1.227.216-1.626.647-.398.43-.597 1.02-.597 1.766 0 .786.178 1.383.536 1.793.36.408.878.61 1.552.61.34 0 .703-.04 1.09-.126V3.933H10.24v-.9z"/>
</g>
</svg>