<svg width="14" height="15" viewBox="0 0 14 15" version="1.1" xmlns="http://www.w3.org/2000/svg" xmlns:xlink="http://www.w3.org/1999/xlink" xmlns:figma="http://www.figma.com/figma/ns">
<g id="Canvas" transform="translate(-1516 -475)" figma:type="canvas">
<g id="Group" figma:type="frame">
<g id="Direction Inbound" figma:type="frame">
<g id="Vector" figma:type="vector">
<use xlink:href="#path0_fill" transform="matrix(-1.83697e-16 -1 1 -1.83697e-16 1518.83 480.933)" fill="#FFFFFF"/>
</g>
</g>
<g id="BIG" figma:type="vector">
<use xlink:href="#path1_fill" transform="translate(1516.54 482.483)" fill="#FFFFFF"/>
<use xlink:href="#path2_fill" transform="translate(1516.54 482.483)" fill="#FFFFFF"/>
<use xlink:href="#path3_fill" transform="translate(1516.54 482.483)" fill="#FFFFFF"/>
</g>
</g>
</g>
<defs>
<path id="path0_fill" d="M 2.66667 0L 2.19667 0.64625L 4.05667 3.20833L 0 3.20833L 0 4.125L 4.05667 4.125L 2.19667 6.68708L 2.66667 7.33333L 5.33333 3.66667L 2.66667 0Z"/>
<path id="path1_fill" d="M 0 0.0922852L 1.90723 0.0922852C 2.79199 0.0922852 3.43066 0.221191 3.82324 0.479004C 4.21875 0.736816 4.4165 1.14404 4.4165 1.70068C 4.4165 2.07568 4.31982 2.3877 4.12646 2.63672C 3.93311 2.88574 3.65479 3.04248 3.2915 3.10693L 3.2915 3.15088C 3.74268 3.23584 4.07373 3.4043 4.28467 3.65625C 4.49854 3.90527 4.60547 4.24365 4.60547 4.67139C 4.60547 5.24854 4.40332 5.70117 3.99902 6.0293C 3.59766 6.35449 3.03809 6.51709 2.32031 6.51709L 0 6.51709L 0 0.0922852ZM 1.05029 2.74658L 2.06104 2.74658C 2.50049 2.74658 2.82129 2.67773 3.02344 2.54004C 3.22559 2.39941 3.32666 2.16211 3.32666 1.82812C 3.32666 1.52637 3.2168 1.30811 2.99707 1.17334C 2.78027 1.03857 2.43457 0.971191 1.95996 0.971191L 1.05029 0.971191L 1.05029 2.74658ZM 1.05029 3.59912L 1.05029 5.63379L 2.1665 5.63379C 2.60596 5.63379 2.93701 5.55029 3.15967 5.3833C 3.38525 5.21338 3.49805 4.94678 3.49805 4.5835C 3.49805 4.24951 3.38379 4.00195 3.15527 3.84082C 2.92676 3.67969 2.57959 3.59912 2.11377 3.59912L 1.05029 3.59912Z"/>
<path id="path2_fill" d="M 5.40141 6.51709L 5.40141 0.0922852L 6.4517 0.0922852L 6.4517 6.51709L 5.40141 6.51709Z"/>
<path id="path3_fill" d="M 10.2403 3.03223L 12.6046 3.03223L 12.6046 6.25781C 12.2179 6.38379 11.8458 6.47314 11.4884 6.52588C 11.1339 6.57861 10.7501 6.60498 10.337 6.60498C 9.36434 6.60498 8.61434 6.31787 8.08699 5.74365C 7.55965 5.1665 7.29598 4.35352 7.29598 3.30469C 7.29598 2.27051 7.59334 1.46191 8.18807 0.878906C 8.78279 0.292969 9.60164 0 10.6446 0C 11.3155 0 11.9513 0.128906 12.5518 0.386719L 12.1827 1.26123C 11.6612 1.021 11.1397 0.900879 10.6182 0.900879C 9.9327 0.900879 9.3907 1.11621 8.99227 1.54688C 8.59383 1.97754 8.39461 2.56641 8.39461 3.31348C 8.39461 4.09863 8.57332 4.69629 8.93074 5.10645C 9.29109 5.51367 9.80818 5.71729 10.482 5.71729C 10.8219 5.71729 11.1851 5.6748 11.5719 5.58984L 11.5719 3.93311L 10.2403 3.93311L 10.2403 3.03223Z"/>
</defs>
</svg>
