<svg id="Layer_1" data-name="Layer 1" xmlns="http://www.w3.org/2000/svg" viewBox="0 0 24 24"><defs><style>.cls-1{fill:#383838;}.cls-2{fill:#ccc;}.cls-3{fill:#f2f2f2;}.cls-4{fill:#e5e5e5;}.cls-5{fill:#ffb900;}.cls-6{fill:#31d2f7;}.cls-7{fill:#757575;}.cls-8{fill:#f8ffb3;}</style></defs><title>Artboard 1</title><path d="M21.75,4.5H24v6H21.75v6.79a2.51,2.51,0,0,1,.56.85,2.66,2.66,0,0,1,0,2,2.52,2.52,0,0,1-.56.84v3h-6V21.75H8.25V24h-6V21a2.52,2.52,0,0,1-.56-.84,2.65,2.65,0,0,1,0-2,2.5,2.5,0,0,1,.56-.85V10.5H0v-6H2.25V3a2.87,2.87,0,0,1,.24-1.16A3.07,3.07,0,0,1,4.09.24,2.83,2.83,0,0,1,5.25,0h13.5a2.83,2.83,0,0,1,1.16.24,3.07,3.07,0,0,1,1.6,1.6A2.87,2.87,0,0,1,21.75,3Z"/><path class="cls-1" d="M3.75,22.5V19.73h3V22.5Zm13.5-2.77h3V22.5h-3Z"/><path class="cls-2" d="M3,7.5V9H1.5V6H3v.75H4.06V7.5ZM19.88,18a1.11,1.11,0,0,1,.44.09,1,1,0,0,1,.35.25,1.27,1.27,0,0,1,.23.36,1.1,1.1,0,0,1,0,.87,1.21,1.21,0,0,1-.24.36,1.1,1.1,0,0,1-.35.25,1.07,1.07,0,0,1-.43.09H4.12a1.07,1.07,0,0,1-.43-.09,1.17,1.17,0,0,1-.61-.61,1.1,1.1,0,0,1,0-.87,1.17,1.17,0,0,1,.61-.61A1.07,1.07,0,0,1,4.12,18ZM21,6h1.5V9H21V7.5H19.93V6.75H21Z"/><polygon class="cls-3" points="20.25 3.75 20.25 14.25 19.44 14.93 4.73 14.93 3.75 14.25 3.75 3.75 4.54 2.7 19.53 2.72 20.25 3.75"/><path class="cls-4" d="M18.75,1.5a1.43,1.43,0,0,1,.58.12,1.54,1.54,0,0,1,.8.8,1.43,1.43,0,0,1,.12.58v.74H3.75V3a1.43,1.43,0,0,1,.12-.58,1.54,1.54,0,0,1,.8-.8,1.43,1.43,0,0,1,.58-.12Z"/><rect class="cls-5" x="3.75" y="14.25" width="16.51" height="4.5"/><path class="cls-6" d="M4.5,13.5V6l4.91-.7q.62-.08,1.22-.21A5.88,5.88,0,0,1,11.87,5a6.21,6.21,0,0,1,1.28.13q.62.13,1.27.21L19.5,6v7.5Z"/><path class="cls-7" d="M4.5,4.5h15V6H4.5ZM9,15.75V15h6v.74Zm0,1.5V16.5h6v.75Z"/><path class="cls-8" d="M6.38,15a1.07,1.07,0,0,1,.43.09,1.21,1.21,0,0,1,.36.24,1.1,1.1,0,0,1,.25.35,1.1,1.1,0,0,1,0,.87,1.17,1.17,0,0,1-.61.61,1.07,1.07,0,0,1-.43.09,1.1,1.1,0,0,1-.44-.09,1.13,1.13,0,0,1-.59-.59,1.1,1.1,0,0,1-.09-.44,1.11,1.11,0,0,1,.09-.44,1,1,0,0,1,.25-.35,1.26,1.26,0,0,1,.36-.23A1.07,1.07,0,0,1,6.38,15Zm11.25,0a1.07,1.07,0,0,1,.43.09,1.26,1.26,0,0,1,.36.23,1,1,0,0,1,.25.35,1.11,1.11,0,0,1,.09.44,1.1,1.1,0,0,1-.09.44,1.14,1.14,0,0,1-.24.35,1.12,1.12,0,0,1-.36.24,1.11,1.11,0,0,1-.44.09,1.1,1.1,0,0,1-.44-.09,1.13,1.13,0,0,1-.59-.59,1.1,1.1,0,0,1-.09-.44,1.11,1.11,0,0,1,.09-.44,1,1,0,0,1,.25-.35,1.26,1.26,0,0,1,.36-.23A1.07,1.07,0,0,1,17.62,15Z"/></svg>