<svg xmlns="http://www.w3.org/2000/svg" width="48" height="48" viewBox="0 0 48 48" xmlns:xlink="http://www.w3.org/1999/xlink"><g><g><g transform="translate(-50 550)"><use fill="transparent" xlink:href="#a" transform="translate(50 -550)"/></g><g transform="translate(-50 550)"><use fill="#F81300" xlink:href="#cablecarx" transform="translate(59 -544)"/></g></g></g><defs><path id="a" d="M0 0h48v48H0V0z"/><path id="cablecarx" d="M6.563 34.2l.71.702 1.68-1.702h-2.39v1zM3.75 37.05l-.712-.702-.288.292v.41h1zm0 .95h-1v1h1v-1zm22.5 0v1h1v-1h-1zm0-.95h1v-.41l-.288-.292-.712.702zm-2.813-2.85v-1h-2.39l1.68 1.702.71-.702zm2.813-17.1v1h1v-1h-1zm-22.5 0h-1v1h1v-1zm0-9.5v-1h-1v1h1zm22.5 0h1v-1h-1v1zM-1 27.55c0 4.207 3.38 7.65 7.563 7.65v-2C3.507 33.2 1 30.677 1 27.55h-2zm6.85 5.948l-2.812 2.85 1.424 1.404 2.812-2.85-1.423-1.404zm-3.1 3.552V38h2v-.95h-2zm1 1.95h22.5v-2H3.75v2zm23.5-1v-.95h-2V38h2zm-.288-1.652l-2.813-2.85-1.425 1.404 2.812 2.85 1.424-1.404zM23.438 35.2C27.62 35.2 31 31.757 31 27.55h-2c0 3.127-2.51 5.65-5.563 5.65v2zM31 27.55V7.6h-2v19.95h2zM31 7.6c0-1.84-.468-3.364-1.375-4.588-.87-1.15-2.194-2.056-3.65-2.636C23.062-.77 19.135-1 15-1v2c4.15 0 7.724.245 10.24 1.237 1.26.488 2.13 1.068 2.778 1.965.61.824.982 1.912.982 3.398h2zM15-1C10.863-1 6.937-.77 4.026.376 2.57.956 1.246 1.86.376 3.012-.534 4.236-1 5.762-1 7.6h2c0-1.486.37-2.574.982-3.398.647-.897 1.52-1.477 2.777-1.965C7.274 1.245 10.85 1 15 1v-2zM-1 7.6v19.95h2V7.6h-2zm16 21.8c-1.498 0-2.75-1.25-2.75-2.8h-2c0 2.63 2.123 4.8 4.75 4.8v-2zm-2.75-2.8c0-1.55 1.252-2.8 2.75-2.8v-2c-2.627 0-4.75 2.17-4.75 4.8h2zM15 23.8c1.498 0 2.75 1.25 2.75 2.8h2c0-2.63-2.123-4.8-4.75-4.8v2zm2.75 2.8c0 1.55-1.252 2.8-2.75 2.8v2c2.627 0 4.75-2.17 4.75-4.8h-2zm8.5-10.5H3.75v2h22.5v-2zm-21.5 1V7.6h-2v9.5h2zm-1-8.5h22.5v-2H3.75v2zm21.5-1v9.5h2V7.6h-2z"/></defs></svg>