<?xml version="1.0" encoding="utf-8"?>
<!-- Generator: Adobe Illustrator 20.1.0, SVG Export Plug-In . SVG Version: 6.00 Build 0)  -->
<svg version="1.1" id="Layer_1" xmlns="http://www.w3.org/2000/svg" xmlns:xlink="http://www.w3.org/1999/xlink" x="0px" y="0px"
	 viewBox="0 0 24 24" style="enable-background:new 0 0 24 24;" xml:space="preserve">
<style type="text/css">
	.st0{fill:#FFFFFF;}
</style>
<path class="st0" d="M21.4,0c0.4,0,0.6,0,0.9,0.3c0.1,0.3,0.3,0.5,0.3,0.8v6c0,0.4-0.1,0.6-0.3,0.8c-0.3,0.3-0.5,0.4-0.9,0.4H18
	l-3,3v-3h-0.9c0-0.5-0.1-1-0.4-1.5c-0.1-0.5-0.4-1-0.6-1.4c-0.4-0.5-0.8-0.9-1.2-1.2c-0.5-0.4-0.9-0.6-1.4-0.8V1
	c0-0.3,0-0.5,0.3-0.8S11.4,0,11.6,0 M8.7,13.5c-0.6,0-1.2-0.1-1.8-0.4c-0.5-0.3-0.9-0.5-1.3-1c-0.4-0.4-0.6-0.8-0.9-1.4
	c-0.1-0.5-0.3-1-0.3-1.7c0-0.6,0.1-1.2,0.3-1.8c0.3-0.5,0.5-1,0.9-1.4C6,5.4,6.4,5,6.9,4.7C7.5,4.6,8,4.5,8.7,4.5
	c0.6,0,1.2,0.1,1.7,0.3c0.5,0.3,1,0.6,1.4,1c0.4,0.4,0.6,0.9,0.8,1.4c0.3,0.6,0.4,1.2,0.4,1.8c0,0.6-0.1,1.2-0.4,1.7
	c-0.1,0.6-0.4,1-0.8,1.4c-0.4,0.5-0.9,0.8-1.4,1C9.8,13.3,9.3,13.5,8.7,13.5z M8.7,15c1.2,0,2.2,0.1,3.1,0.5
	c0.9,0.4,1.7,0.8,2.2,1.5c0.6,0.6,1.2,1.4,1.4,2.3c0.3,0.9,0.5,1.9,0.5,3.1V24H1.5v-1.5c0-1.2,0.1-2.2,0.5-3.1
	c0.3-0.9,0.8-1.7,1.3-2.3c0.6-0.8,1.4-1.2,2.3-1.5C6.5,15.1,7.5,15,8.7,15z"/>
</svg>
