<svg id="Layer_1" data-name="Layer 1" xmlns="http://www.w3.org/2000/svg" viewBox="0 0 20 20"><defs><style>.cls-1{fill:#006f94;}.cls-2{fill:#009abc;}.cls-3{fill:#f03a17;}.cls-4{fill:#e81224;}.cls-5{fill:#e5e5e5;}.cls-6{fill:#31d2f7;}.cls-7{fill:#f2f2f2;}.cls-8{fill:#ccc;}.cls-9{fill:#69eaff;}.cls-10{fill:#00bcf2;}</style></defs><title>Artboard 1</title><polygon points="3.12 8.12 3.12 3.75 3.75 3.75 3.75 2.5 7.5 2.5 7.5 0 12.5 0 12.5 2.5 16.25 2.5 16.25 3.75 16.88 3.75 16.88 8.12 17.98 8.12 15.7 15 19.37 15 19.37 20 0.63 20 0.63 15 4.3 15 2.02 8.12 3.12 8.12"/><path class="cls-1" d="M10,8.68l.43,1v7.5H5.7L6,16.25l-1.67-5,.43-.71L4,10l-.21-.63H5.62l.45-.7Zm1.25-6.8-.33.35.33.28V4.12H8.75V2.5l.33-.28-.33-.35V1.25h2.5Z"/><polygon class="cls-2" points="15.63 11.25 13.96 16.25 14.22 17.14 10 17.14 10 8.68 13.7 8.68 14.37 9.37 16.25 9.37 16.04 10 15.15 10.52 15.63 11.25"/><polygon class="cls-3" points="10 10 16.04 10 15.63 11.25 10 11.25 9.48 10.59 10 10"/><path class="cls-4" d="M4.37,11.25,4,10h6v1.25ZM8.75,1.88h2.5V2.5H8.75Z"/><path class="cls-5" d="M5,3.75H15V5.43H5Zm.63,5.63V7.7h8.75V9.37Z"/><path class="cls-6" d="M5.63,5.24V4.37h2.5v.87Zm3.12,0V4.37h2.5v.87Zm3.13-.87h2.5v.87h-2.5Z"/><path class="cls-7" d="M4.37,5H15.63V7.5l-.23.06L15,7.65l-.36.08-.2,0H5.57l-.24,0L5,7.66l-.35-.09L4.37,7.5Z"/><polygon class="cls-8" points="15.63 7.5 14.37 8.12 5.63 8.12 4.37 7.5 15.63 7.5"/><rect class="cls-9" x="5" y="5.63" width="10" height="1.25"/><path class="cls-10" d="M14,16.25h4.17v2.5H1.88v-2.5H6l.21.63a1.44,1.44,0,0,0,.7-.17,1.91,1.91,0,0,0,.56-.45,1.79,1.79,0,0,0,.55.45,1.47,1.47,0,0,0,1.39,0,1.91,1.91,0,0,0,.56-.45,1.91,1.91,0,0,0,.56.45,1.48,1.48,0,0,0,1.39,0,1.91,1.91,0,0,0,.56-.45,1.79,1.79,0,0,0,.55.45,1.45,1.45,0,0,0,.69.17Z"/></svg>