<svg width="472" height="472" viewBox="0 0 472 472" version="1.1" xmlns="http://www.w3.org/2000/svg" xmlns:xlink="http://www.w3.org/1999/xlink">
<title>Group</title>
<desc>Created using Figma</desc>
<g id="Canvas" transform="translate(-436 -1112)">
<g id="Group">
<path d="M 436 1112L 908 1112L 908 1584L 436 1584L 436 1112Z" fill="#FFFFFF"/>
<g id="Android">
<g id="Ellipse 6">
<use xlink:href="#path0_fill" transform="translate(509 1185)" fill="#FFFFFF"/>
<mask id="mask0_outline_out">
<rect id="mask0_outline_inv" fill="white" x="-20" y="-20" width="365" height="365" transform="translate(509 1185)"/>
<use xlink:href="#path0_fill" fill="black" transform="translate(509 1185)"/>
</mask>
<g mask="url(#mask0_outline_out)">
<use xlink:href="#path1_stroke_2x" transform="translate(509 1185)" fill="#FB6754"/>
</g>
</g>
</g>
<g id="Group">
<mask id="mask1_alpha" mask-type="alpha">
<g id="Ellipse 5">
<use xlink:href="#path0_fill" transform="translate(509 1185)" fill="#C4C4C4"/>
</g>
</mask>
<g id="Vector 6" mask="url(#mask1_alpha)">
<use xlink:href="#path2_fill" transform="translate(458.197 1299.48)" fill="#FB6754"/>
<mask id="mask2_outline_ins">
<use xlink:href="#path2_fill" fill="white" transform="translate(458.197 1299.48)"/>
</mask>
<g mask="url(#mask2_outline_ins)">
<use xlink:href="#path3_stroke_2x" transform="translate(458.197 1299.48)" fill="#FFFFFF"/>
</g>
</g>
<g id="Ellipse 2" mask="url(#mask1_alpha)">
<use xlink:href="#path4_fill" transform="matrix(0.904578 -0.426225 0.550155 0.83511 588.412 1309.85)" fill="#FB6754"/>
<mask id="mask3_outline_ins">
<use xlink:href="#path4_fill" fill="white" transform="matrix(0.904578 -0.426225 0.550155 0.83511 588.412 1309.85)"/>
</mask>
<g mask="url(#mask3_outline_ins)">
<use xlink:href="#path5_stroke_2x" transform="matrix(0.904578 -0.426225 0.550155 0.83511 588.412 1309.85)" fill="#FFFFFF"/>
</g>
</g>
<g id="Rectangle 2" mask="url(#mask1_alpha)">
<use xlink:href="#path6_fill" transform="matrix(0.899663 -0.436502 0.578014 0.816076 567.903 1242.22)" fill="#FB6754"/>
</g>
<g id="Vector 7" mask="url(#mask1_alpha)">
<use xlink:href="#path7_fill" transform="matrix(1 2.77556e-17 -2.77556e-17 1 496.473 1428.58)" fill="#FB6754"/>
<mask id="mask4_outline_ins">
<use xlink:href="#path7_fill" fill="white" transform="matrix(1 2.77556e-17 -2.77556e-17 1 496.473 1428.58)"/>
</mask>
<g mask="url(#mask4_outline_ins)">
<use xlink:href="#path8_stroke_2x" transform="matrix(1 2.77556e-17 -2.77556e-17 1 496.473 1428.58)" fill="#FFFFFF"/>
</g>
</g>
</g>
</g>
</g>
<defs>
<path id="path0_fill" d="M 325 162.5C 325 252.246 252.246 325 162.5 325C 72.7537 325 0 252.246 0 162.5C 0 72.7537 72.7537 0 162.5 0C 252.246 0 325 72.7537 325 162.5Z"/>
<path id="path1_stroke_2x" d="M 305 162.5C 305 241.201 241.201 305 162.5 305L 162.5 345C 263.292 345 345 263.292 345 162.5L 305 162.5ZM 162.5 305C 83.7994 305 20 241.201 20 162.5L -20 162.5C -20 263.292 61.708 345 162.5 345L 162.5 305ZM 20 162.5C 20 83.7994 83.7994 20 162.5 20L 162.5 -20C 61.708 -20 -20 61.708 -20 162.5L 20 162.5ZM 162.5 20C 241.201 20 305 83.7994 305 162.5L 345 162.5C 345 61.708 263.292 -20 162.5 -20L 162.5 20Z"/>
<path id="path2_fill" d="M 199.108 60.692L 16.1848 65.3234C 8.75101 65.5116 4.11585 73.459 7.61216 80.022L 62.3262 182.726C 63.8105 185.512 66.4616 187.423 69.5932 187.823C 98.4164 191.5 246.541 206.865 308.994 143.71C 321.56 131.002 330.628 120.248 337.875 104.39C 347.192 83.9988 349.676 45.4393 350.282 21.3225C 350.495 12.8511 340.55 8.24404 333.834 13.4112C 314.885 27.9887 283.424 49.8222 259.712 54.3785C 225.624 60.9287 202.319 60.7376 199.632 60.6907C 199.456 60.6876 199.284 60.6875 199.108 60.692Z"/>
<path id="path3_stroke_2x" d="M 16.1848 65.3234L 16.5644 80.3186L 16.5644 80.3186L 16.1848 65.3234ZM 199.108 60.692L 199.488 75.6871L 199.488 75.6871L 199.108 60.692ZM 350.282 21.3225L 365.277 21.6994L 365.277 21.6994L 350.282 21.3225ZM 337.875 104.39L 351.518 110.624L 351.518 110.624L 337.875 104.39ZM 308.994 143.71L 298.328 133.163L 298.328 133.163L 308.994 143.71ZM 69.5932 187.823L 71.4916 172.943L 71.4916 172.943L 69.5932 187.823ZM 62.3262 182.726L 75.5648 175.673L 75.5647 175.673L 62.3262 182.726ZM 7.61216 80.022L -5.62642 87.0746L 7.61216 80.022ZM 199.632 60.6907L 199.894 45.693L 199.894 45.693L 199.632 60.6907ZM 259.712 54.3785L 256.882 39.648L 259.712 54.3785ZM 333.834 13.4112L 342.98 25.3L 342.98 25.3L 333.834 13.4112ZM 16.5644 80.3186L 199.488 75.6871L 198.728 45.6968L 15.8051 50.3282L 16.5644 80.3186ZM 335.287 20.9457C 334.989 32.8231 334.261 47.7684 332.456 62.4305C 330.63 77.3446 327.885 90.1614 324.232 98.1555L 351.518 110.624C 357.183 98.2272 360.337 81.5687 362.234 66.0762C 364.152 50.3316 364.969 33.9387 365.277 21.6994L 335.287 20.9457ZM 324.232 98.1555C 317.956 112.222 310.484 120.886 298.328 133.163L 319.659 154.257C 332.635 141.119 343.3 128.274 351.518 110.624L 324.232 98.1555ZM 298.328 133.163C 271.193 160.603 223.453 172.318 175.573 175.87C 128.49 179.424 85.7566 174.764 71.4916 172.943L 67.6948 202.702C 82.253 204.559 127.993 209.42 177.792 205.787C 226.792 202.152 284.341 189.972 319.659 154.257L 298.328 133.163ZM 75.5647 175.673L 20.8507 72.9693L -5.62642 87.0746L 49.0876 189.778L 75.5647 175.673ZM 199.371 75.6884C 202.127 75.7363 226.985 75.8669 262.543 69.1091L 256.882 39.648C 224.264 45.9905 202.512 45.7388 199.894 45.693L 199.371 75.6884ZM 262.543 69.1091C 277.014 66.3284 292.62 58.6386 306.227 50.5447C 319.991 42.3409 333.325 32.7256 342.98 25.3L 324.688 1.52228C 315.394 8.67424 303.523 17.2645 290.891 24.7609C 278.103 32.3673 266.122 37.8724 256.882 39.648L 262.543 69.1091ZM 15.8051 50.3282C -2.7793 50.7987 -14.3672 70.6673 -5.62642 87.0746L 20.8507 72.9693C 22.5989 76.2508 20.2813 80.2245 16.5644 80.3186L 15.8051 50.3282ZM 199.488 75.6871C 199.407 75.6892 199.36 75.6882 199.371 75.6884L 199.894 45.693C 199.592 45.6882 199.099 45.6886 198.728 45.6968L 199.488 75.6871ZM 365.277 21.6994C 365.839 -0.643764 340.399 -10.5645 324.688 1.52229L 342.98 25.3C 341.506 26.434 339.591 26.4513 338.228 25.8052C 336.766 25.1116 335.228 23.2718 335.287 20.9457L 365.277 21.6994ZM 71.4916 172.943C 73.4293 173.19 74.8799 174.387 75.5648 175.673L 49.0876 189.778C 52.7412 196.636 59.4938 201.656 67.6948 202.702L 71.4916 172.943Z"/>
<path id="path4_fill" d="M 70.938 82.2323C 70.938 127.648 55.0579 164.465 35.469 164.465C 15.88 164.465 0 127.648 0 82.2323C 0 36.8166 15.88 0 35.469 0C 55.0579 0 70.938 36.8166 70.938 82.2323Z"/>
<path id="path5_stroke_2x" d="M 55.938 82.2323C 56.0061 103.512 52.6334 121.08 46.7759 134.438C 44.0795 140.809 41.8583 144.405 38.7728 147.292C 37.472 148.626 37.2752 148.796 36.1878 149.242C 35.3122 149.746 36.1507 149.569 35.469 149.465L 35.469 179.465C 45.4044 179.465 53.6378 174.733 59.7774 168.712C 65.1788 163.277 70.6006 154.831 74.3227 146.32C 81.3025 129.916 85.8698 106.369 85.938 82.2323L 55.938 82.2323ZM 35.469 149.465C 34.7873 149.569 35.6257 149.746 34.7502 149.242C 33.6628 148.796 33.4659 148.626 32.1651 147.292C 29.0797 144.405 26.8585 140.809 24.162 134.438C 18.3045 121.08 14.9318 103.512 15 82.2323L -15 82.2323C -14.9318 106.369 -10.3645 129.916 -3.38478 146.32C 0.337367 154.831 5.75911 163.277 11.1606 168.712C 17.3001 174.733 25.5335 179.465 35.469 179.465L 35.469 149.465ZM 15 82.2323C 14.9318 60.953 18.3045 43.3847 24.162 30.0261C 26.8585 23.656 29.0797 20.0594 32.1651 17.1721C 33.4659 15.839 33.6628 15.6681 34.7502 15.2229C 35.6257 14.7188 34.7873 14.8956 35.469 15L 35.469 -15C 25.5335 -15 17.3001 -10.2682 11.1606 -4.24769C 5.75911 1.18742 0.337367 9.63348 -3.38478 18.1444C -10.3645 34.5481 -14.9318 58.0959 -15 82.2323L 15 82.2323ZM 35.469 15C 36.1507 14.8956 35.3122 14.7188 36.1878 15.2229C 37.2752 15.6681 37.472 15.839 38.7728 17.1721C 41.8583 20.0594 44.0795 23.656 46.7759 30.0261C 52.6334 43.3847 56.0061 60.953 55.938 82.2323L 85.938 82.2323C 85.8698 58.0959 81.3025 34.5481 74.3227 18.1444C 70.6006 9.63348 65.1788 1.18742 59.7774 -4.24769C 53.6378 -10.2682 45.4044 -15 35.469 -15L 35.469 15Z"/>
<path id="path6_fill" d="M 2.67995e-15 9.12069C 1.19985e-15 4.08347 4.08347 0 9.12069 0L 9.12069 0C 14.1579 0 18.2414 4.08347 18.2414 9.12069L 18.2414 98.6604C 18.2414 103.698 14.1579 107.781 9.12069 107.781L 9.12069 107.781C 4.08347 107.781 3.04697e-14 103.698 2.89896e-14 98.6604L 2.67995e-15 9.12069Z"/>
<path id="path7_fill" d="M 210.76 22.4256C 225.309 19.4885 236.834 0 236.834 0C 236.834 0 243.759 19.5227 256.753 22.4256C 262.334 23.6726 303.426 22.4256 303.426 22.4256L 303.426 99.5182L 0 99.5182L 0 22.4256L 58.2946 22.4256C 58.2946 22.4256 70.0464 24.0052 77.1264 22.4256C 91.3054 19.2622 102.115 0 102.115 0C 102.115 0 113.612 19.5776 128.19 22.4256C 134.507 23.6598 138.579 23.8045 144.848 22.4256C 158.514 19.42 167.664 0 167.664 0C 167.664 0 178.931 19.4712 193.376 22.4256C 199.95 23.7701 204.18 23.7537 210.76 22.4256Z"/>
<path id="path8_stroke_2x" d="M 236.834 0L 250.029 -4.6802L 240.022 -32.8929L 224.784 -7.1264L 236.834 0ZM 210.76 22.4256L 213.53 36.1488L 213.53 36.1488L 210.76 22.4256ZM 193.376 22.4256L 190.571 36.1417L 190.571 36.1417L 193.376 22.4256ZM 167.664 0L 179.781 -7.01186L 166.393 -30.1492L 154.999 -5.96709L 167.664 0ZM 144.848 22.4256L 147.856 36.0988L 147.856 36.0988L 144.848 22.4256ZM 128.19 22.4256L 130.874 8.68538L 130.874 8.68538L 128.19 22.4256ZM 102.115 0L 114.187 -7.08947L 101.839 -28.1163L 89.9057 -6.85129L 102.115 0ZM 77.1264 22.4256L 74.0779 8.76154L 74.0779 8.76154L 77.1264 22.4256ZM 58.2946 22.4256L 60.1596 8.55038L 59.2313 8.42561L 58.2946 8.42561L 58.2946 22.4256ZM 0 22.4256L 0 8.42561L -14 8.42561L -14 22.4256L 0 22.4256ZM 0 99.5182L -14 99.5182L -14 113.518L 0 113.518L 0 99.5182ZM 303.426 99.5182L 303.426 113.518L 317.426 113.518L 317.426 99.5182L 303.426 99.5182ZM 303.426 22.4256L 317.426 22.4256L 317.426 7.99429L 303.001 8.43205L 303.426 22.4256ZM 256.753 22.4256L 253.7 36.0888L 253.7 36.0888L 256.753 22.4256ZM 236.834 0C 224.784 -7.1264 224.786 -7.1292 224.787 -7.13192C 224.788 -7.13273 224.789 -7.13539 224.79 -7.13701C 224.789 -7.13568 224.797 -7.14858 224.795 -7.14591C 224.795 -7.1444 224.805 -7.16173 224.803 -7.15864C 224.804 -7.16017 224.808 -7.16682 224.806 -7.1642C 224.794 -7.14335 224.79 -7.13753 224.766 -7.09872C 224.699 -6.98927 224.634 -6.88377 224.507 -6.68552C 224.213 -6.2229 223.867 -5.69406 223.328 -4.92417C 222.157 -3.24403 220.781 -1.39032 218.832 0.762751C 214.597 5.48394 210.645 8.1664 207.989 8.70243L 213.53 36.1488C 225.424 33.7477 234.51 25.2173 239.674 19.46C 242.425 16.3738 244.84 13.1718 246.285 11.1061C 247.053 10.0031 247.722 8.98642 248.114 8.37178C 248.331 8.03141 248.527 7.71535 248.636 7.53789C 248.7 7.43324 248.763 7.32926 248.795 7.27619C 248.816 7.24185 248.839 7.20413 248.849 7.18691C 248.856 7.17444 248.865 7.15924 248.869 7.15301C 248.872 7.14797 248.876 7.1413 248.878 7.13879C 248.879 7.13657 248.881 7.13347 248.881 7.13237C 248.883 7.12935 248.885 7.1264 236.834 0ZM 207.989 8.70243C 202.761 9.82585 201.333 9.83858 196.182 8.70954L 190.571 36.1417C 198.568 37.7017 205.599 37.6816 213.53 36.1488L 207.989 8.70243ZM 196.182 8.70954C 193.617 8.18496 189.757 5.55088 185.599 0.840502C 183.688 -1.30452 182.346 -3.14693 181.2 -4.82311C 180.673 -5.59016 180.337 -6.11527 180.049 -6.5765C 179.925 -6.77366 179.862 -6.87771 179.797 -6.98663C 179.774 -7.02498 179.771 -7.03017 179.759 -7.0508C 179.757 -7.05322 179.761 -7.04608 179.762 -7.04465C 179.76 -7.04784 179.771 -7.03008 179.77 -7.03164C 179.768 -7.03436 179.776 -7.02125 179.775 -7.0226C 179.776 -7.02096 179.778 -7.01827 179.778 -7.01745C 179.78 -7.01469 179.781 -7.01186 167.664 0C 155.546 7.01186 155.548 7.01484 155.55 7.01789C 155.55 7.01901 155.552 7.02214 155.554 7.02438C 155.555 7.02692 155.559 7.03365 155.562 7.03873C 155.566 7.04501 155.574 7.06033 155.582 7.07289C 155.592 7.0902 155.614 7.12818 155.634 7.16269C 155.666 7.21592 155.728 7.32043 155.791 7.42541C 155.898 7.60316 156.091 7.92032 156.304 8.26134C 156.688 8.87649 157.345 9.89564 158.1 11.0002C 159.518 13.0672 161.896 16.2772 164.607 19.3693C 169.694 25.1331 178.691 33.7118 190.571 36.1417L 196.182 8.70954ZM 167.664 0C 154.999 -5.96709 155.001 -5.97021 155.002 -5.97326C 155.002 -5.97418 155.004 -5.97716 155.005 -5.97901C 155.004 -5.97745 155.011 -5.99235 155.01 -5.98923C 155.009 -5.98727 155.019 -6.00867 155.017 -6.00467C 155.017 -6.00527 155.023 -6.01657 155.022 -6.01585C 155.013 -5.997 155.013 -5.99711 154.996 -5.96242C 154.945 -5.8575 154.899 -5.7654 154.801 -5.57668C 154.569 -5.12528 154.306 -4.63021 153.877 -3.88488C 152.934 -2.23672 151.861 -0.489296 150.255 1.58713C 146.721 6.21442 143.609 8.36349 141.841 8.75242L 147.856 36.0988C 159.753 33.4821 168.049 24.4184 172.506 18.5843C 174.896 15.43 176.965 12.1346 178.164 10.0475C 178.806 8.92529 179.365 7.8797 179.687 7.25732C 179.866 6.90916 180.03 6.5811 180.119 6.40008C 180.172 6.2918 180.226 6.18227 180.252 6.12745C 180.269 6.09134 180.289 6.05094 180.297 6.03284C 180.304 6.01949 180.312 6.00298 180.315 5.99631C 180.317 5.99084 180.321 5.98351 180.322 5.98078C 180.323 5.97835 180.325 5.97492 180.325 5.9737C 180.327 5.97036 180.328 5.96709 167.664 0ZM 141.841 8.75242C 137.314 9.86182 136.103 9.75105 130.874 8.68538L 125.505 36.1658C 132.911 37.5685 139.844 37.7473 147.856 36.0988L 141.841 8.75242ZM 130.874 8.68538C 128.27 8.17667 124.35 5.53997 120.12 0.811035C 118.175 -1.34258 116.806 -3.19744 115.638 -4.88261C 115.1 -5.65443 114.756 -6.18414 114.462 -6.64834C 114.336 -6.8471 114.271 -6.95261 114.204 -7.0624C 114.18 -7.10125 114.177 -7.1069 114.164 -7.12778C 114.163 -7.13036 114.167 -7.12353 114.168 -7.12202C 114.166 -7.12516 114.176 -7.10762 114.175 -7.10915C 114.174 -7.11185 114.181 -7.09883 114.181 -7.10017C 114.182 -7.09853 114.183 -7.09585 114.184 -7.09504C 114.185 -7.09229 114.187 -7.08947 102.115 0C 90.0425 7.08947 90.0442 7.09244 90.046 7.09549C 90.0467 7.0966 90.0485 7.09973 90.0498 7.10196C 90.0513 7.10449 90.0553 7.11121 90.0583 7.11629C 90.062 7.12256 90.071 7.13786 90.0784 7.15042C 90.0887 7.16775 90.1113 7.20572 90.1319 7.24028C 90.1639 7.29365 90.2268 7.39828 90.2909 7.50352C 90.3996 7.6819 90.596 7.99978 90.8125 8.34191C 91.2043 8.95949 91.8724 9.98152 92.6401 11.0896C 94.0835 13.1642 96.4992 16.3817 99.2508 19.4785C 104.414 25.2504 113.531 33.8265 125.505 36.1658L 130.874 8.68538ZM 102.115 0C 89.9057 -6.85129 89.9073 -6.85414 89.9089 -6.85691C 89.9094 -6.85774 89.9109 -6.86045 89.9118 -6.86212C 89.911 -6.86074 89.9185 -6.87402 89.917 -6.87126C 89.9161 -6.86965 89.9263 -6.88784 89.9245 -6.88455C 89.9252 -6.88583 89.9296 -6.89359 89.9284 -6.89148C 89.9169 -6.87135 89.9145 -6.86708 89.8927 -6.8297C 89.8303 -6.7225 89.7708 -6.62134 89.6528 -6.42735C 89.3769 -5.97197 89.0561 -5.45595 88.55 -4.69829C 87.4485 -3.03984 86.1616 -1.22208 84.3163 0.905892C 80.3028 5.57979 76.5632 8.20707 74.0779 8.76154L 80.1749 36.0897C 91.8686 33.4808 100.623 24.8953 105.559 19.1472C 108.189 16.0642 110.49 12.8687 111.859 10.8166C 112.587 9.71899 113.222 8.70543 113.592 8.09505C 113.798 7.75617 113.984 7.4404 114.087 7.2639C 114.148 7.15942 114.208 7.05514 114.238 7.00218C 114.258 6.96776 114.279 6.92976 114.289 6.9125C 114.296 6.89993 114.305 6.88456 114.309 6.87828C 114.311 6.87319 114.315 6.86642 114.317 6.86388C 114.318 6.86163 114.32 6.85848 114.32 6.85735C 114.322 6.85428 114.324 6.85129 102.115 0ZM 74.0779 8.76154C 72.5095 9.11146 69.4137 9.22437 65.7776 9.03658C 64.1162 8.95301 62.7737 8.83349 61.6592 8.7197C 61.1377 8.66688 60.7738 8.62515 60.4768 8.58956C 60.345 8.57383 60.268 8.56419 60.1973 8.55516C 60.1699 8.55168 60.161 8.55052 60.1466 8.54864C 60.1433 8.54821 60.1432 8.54819 60.145 8.54842C 60.1439 8.54828 60.1507 8.54919 60.1502 8.54912C 60.149 8.54896 60.155 8.54976 60.1544 8.54968C 60.1552 8.54979 60.1565 8.54996 60.1569 8.55001C 60.1582 8.55019 60.1596 8.55038 58.2946 22.4256C 56.4297 36.3008 56.4311 36.301 56.4327 36.3012C 56.4332 36.3013 56.4348 36.3015 56.4359 36.3017C 56.4373 36.3019 56.4407 36.3023 56.4433 36.3027C 56.4467 36.3031 56.4547 36.3042 56.4614 36.3051C 56.471 36.3063 56.4913 36.309 56.5105 36.3115C 56.541 36.3155 56.599 36.3231 56.6594 36.3308C 56.7643 36.3441 56.9467 36.3668 57.15 36.3912C 57.5234 36.4358 58.1329 36.5052 58.8238 36.5758C 60.134 36.7088 62.1719 36.8854 64.3334 36.9993C 68.5173 37.2107 75.1199 37.1312 80.1749 36.0897L 74.0779 8.76154ZM 58.2946 8.42561L 0 8.42561L 0 36.4256L 58.2946 36.4256L 58.2946 8.42561ZM -14 22.4256L -14 99.5182L 14 99.5182L 14 22.4256L -14 22.4256ZM 0 113.518L 303.426 113.518L 303.426 85.5182L 0 85.5182L 0 113.518ZM 317.426 99.5182L 317.426 22.4256L 289.426 22.4256L 289.426 99.5182L 317.426 99.5182ZM 303.426 22.4256C 303.001 8.43205 303.002 8.43205 303.001 8.43205C 303.001 8.43206 303.001 8.43206 303.001 8.43208C 302.999 8.43211 302.998 8.43215 302.996 8.43222C 302.991 8.43236 302.985 8.43255 302.975 8.43283C 302.956 8.43341 302.929 8.43423 302.891 8.43535C 302.815 8.43764 302.703 8.44094 302.555 8.44527C 302.255 8.45402 301.82 8.46654 301.259 8.4822C 300.131 8.51368 298.526 8.55693 296.572 8.60525C 292.652 8.70222 287.414 8.8176 281.984 8.89466C 271.112 9.04948 258.531 8.39129 259.805 8.76244L 253.7 36.0888C 256.857 36.794 262.213 36.9 266.224 36.9506C 270.997 37.0101 276.845 36.9704 282.381 36.8918C 287.921 36.813 293.306 36.6946 297.264 36.5967C 299.25 36.5476 300.899 36.5032 302.04 36.4713C 302.614 36.4553 303.067 36.4423 303.372 36.4333C 303.526 36.4288 303.646 36.4253 303.725 36.4229C 303.765 36.4217 303.797 36.4208 303.817 36.4202C 303.828 36.4199 303.836 36.4196 303.841 36.4194C 303.844 36.4194 303.847 36.4193 303.848 36.4192C 303.849 36.4192 303.849 36.4192 303.85 36.4192C 303.85 36.4192 303.851 36.4192 303.426 22.4256ZM 259.805 8.76244C 258.989 8.58007 256.63 7.13602 253.713 2.57824C 252.411 0.577566 251.602 -1.06806 250.865 -2.69563C 250.533 -3.42211 250.341 -3.88836 250.165 -4.33272C 250.092 -4.51404 250.062 -4.59452 250.024 -4.69616C 250.012 -4.72739 250.002 -4.75634 250.008 -4.73913C 250.007 -4.7401 250.014 -4.72261 250.014 -4.72284C 250.012 -4.72769 250.021 -4.70249 250.02 -4.70487C 250.019 -4.70841 250.025 -4.69162 250.024 -4.69338C 250.025 -4.69132 250.026 -4.68802 250.027 -4.687C 250.028 -4.68364 250.029 -4.6802 236.834 0C 223.64 4.6802 223.641 4.68378 223.642 4.68745C 223.643 4.68877 223.644 4.69251 223.645 4.69516C 223.646 4.69811 223.649 4.70608 223.651 4.71198C 223.654 4.71909 223.66 4.73692 223.665 4.75116C 223.672 4.77018 223.688 4.81332 223.701 4.85131C 223.722 4.90816 223.765 5.02361 223.807 5.13607C 223.877 5.32183 224.008 5.66362 224.15 6.02179C 224.403 6.65642 224.853 7.73806 225.373 8.88719C 226.341 11.0108 228.076 14.4273 230.129 17.6702C 233.923 23.5995 241.523 33.3683 253.7 36.0888L 259.805 8.76244Z"/>
</defs>
</svg>
