<?xml version="1.0" encoding="utf-8"?>
<!-- Generator: Adobe Illustrator 20.1.0, SVG Export Plug-In . SVG Version: 6.00 Build 0)  -->
<svg version="1.1" id="Layer_1" xmlns="http://www.w3.org/2000/svg" xmlns:xlink="http://www.w3.org/1999/xlink" x="0px" y="0px"
	 viewBox="0 0 24 24" style="enable-background:new 0 0 24 24;" xml:space="preserve">
<style type="text/css">
	.st0{fill:#FFFFFF;}
</style>
<path class="st0" d="M2.9,22.4h18.2l-3.4-10.5h-5v5.6c0,0.1,0,0.1,0,0.3c-0.1,0-0.1,0-0.3,0.1c-0.1,0-0.1,0-0.3,0s-0.1,0-0.3,0h-0.1
	c-0.1,0-0.1,0-0.3,0c-0.1-0.1-0.1-0.1-0.3-0.1c0-0.1,0-0.1,0-0.3v-5.6h-5 M9.8,3.8c0,0.3,0,0.6,0.1,0.9c0.1,0.3,0.3,0.5,0.5,0.6
	c0.3,0.3,0.4,0.4,0.8,0.5c0.3,0.1,0.5,0.1,0.8,0.1c0.4,0,0.6,0,0.9-0.1c0.3-0.1,0.5-0.3,0.8-0.5c0.1-0.1,0.4-0.4,0.5-0.6
	c0.1-0.3,0.1-0.6,0.1-0.9c0-0.4,0-0.6-0.1-0.9c-0.1-0.3-0.4-0.5-0.5-0.8c-0.3-0.1-0.5-0.3-0.8-0.4c-0.3-0.1-0.5-0.3-0.9-0.3
	c-0.3,0-0.5,0.1-0.8,0.3c-0.4,0.1-0.5,0.3-0.8,0.4C10.2,2.4,10,2.6,9.9,2.9C9.8,3.1,9.8,3.4,9.8,3.8z M23.2,23.9H0.8l4.5-13.4h6V7.5
	C10.8,7.3,10.4,7.2,10,7C9.6,6.7,9.4,6.5,9.1,6.1c-0.3-0.3-0.5-0.6-0.6-1C8.4,4.7,8.2,4.2,8.2,3.8c0-0.5,0.1-1,0.3-1.5
	C8.7,1.9,9,1.5,9.4,1.1c0.3-0.4,0.6-0.6,1.1-0.8c0.5-0.3,0.9-0.3,1.4-0.3c0.5,0,1,0,1.5,0.3c0.4,0.1,0.8,0.4,1.1,0.8
	c0.4,0.4,0.6,0.8,0.8,1.1c0.3,0.5,0.4,1,0.4,1.5c0,0.4-0.1,0.9-0.3,1.3c-0.1,0.4-0.4,0.8-0.6,1C14.6,6.5,14.4,6.7,14,7
	c-0.4,0.3-0.8,0.4-1.3,0.5v3.1h6L23.2,23.9z"/>
</svg>
