<svg xmlns="http://www.w3.org/2000/svg" width="400" height="400" viewBox="0 0 400 400" xmlns:xlink="http://www.w3.org/1999/xlink"><use fill="#00334C" xlink:href="#a"/><use fill="#D5DF3E" xlink:href="#b" transform="translate(96.215 44)"/><use fill="#D5DF3E" xlink:href="#b" transform="translate(96.215 44)"/><use fill="#D5DF3E" xlink:href="#c" transform="translate(132.32 83.29)"/><use fill="#D5DF3E" xlink:href="#d" transform="translate(93 306.05)"/><use fill="#D5DF3E" xlink:href="#e" transform="translate(132.327 248.52)"/><use fill="#D5DF3E" xlink:href="#f" transform="translate(207.195 163.162)"/><use fill="#FFF" xlink:href="#g" transform="translate(171.125 127.13)"/><defs><path id="a" d="M0 0h400v400H0V0z"/><path id="b" d="M0 18.976C0 8.498 8.5 0 18.987 0 29.477 0 37.98 8.498 37.98 18.976c0 10.48-8.505 18.976-18.993 18.976C8.503 37.952 0 29.456 0 18.976z"/><path id="c" d="M0 29.693C0 13.293 13.312 0 29.727 0 46.15 0 59.454 13.293 59.454 29.693c0 16.407-13.306 29.704-29.727 29.704C13.312 59.397 0 46.097 0 29.694z"/><path id="d" d="M18.994 37.95C8.506 37.95 0 29.448 0 18.972 0 8.492 8.506 0 18.994 0c10.49 0 18.99 8.49 18.99 18.972 0 10.476-8.502 18.978-18.99 18.978z"/><path id="e" d="M29.72 59.4C13.3 59.4.003 46.1.003 29.71 0 13.3 13.3 0 29.72 0c16.425 0 29.73 13.3 29.73 29.71 0 16.39-13.306 29.69-29.73 29.69z"/><path id="f" d="M61.73 30.833c0 17.042-13.818 30.843-30.864 30.843S0 47.876 0 30.832C0 13.808 13.82 0 30.866 0S61.73 13.808 61.73 30.833z"/><path id="g" d="M66.936 117.995c-28.27 0-51.177-22.887-51.177-51.126 0-28.238 22.907-51.13 51.175-51.13 28.267 0 51.186 22.892 51.186 51.13.003 28.237-22.92 51.124-51.185 51.124zM66.936 0C29.963 0 0 29.94 0 66.867c0 36.942 29.965 66.87 66.936 66.87 36.97 0 66.94-29.926 66.94-66.87 0-36.93-29.97-66.867-66.94-66.867z"/></defs></svg>