<?xml version="1.0" encoding="utf-8"?>
<!-- Generator: Adobe Illustrator 20.1.0, SVG Export Plug-In . SVG Version: 6.00 Build 0)  -->
<svg version="1.1" id="Layer_1" xmlns="http://www.w3.org/2000/svg" xmlns:xlink="http://www.w3.org/1999/xlink" x="0px" y="0px"
	 viewBox="0 0 24 24" style="enable-background:new 0 0 24 24;" xml:space="preserve">
<style type="text/css">
	.st0{fill:#FFFFFF;}
</style>
<path class="st0" d="M8.3,14.9c0.9,0,1.8-0.1,2.6-0.5c0.9-0.4,1.5-0.9,2.2-1.4c0.6-0.6,1.1-1.4,1.5-2.2c0.3-0.8,0.5-1.7,0.5-2.7
	c0-0.9-0.3-1.8-0.5-2.6c-0.4-0.8-0.9-1.5-1.5-2.2c-0.6-0.6-1.3-1-2.2-1.4c-0.8-0.4-1.7-0.5-2.6-0.5S6.5,1.7,5.6,2
	c-0.8,0.4-1.5,0.8-2,1.4C2.9,4.1,2.4,4.9,2,5.6C1.8,6.4,1.5,7.3,1.5,8.2c0,1,0.3,1.9,0.5,2.7c0.4,0.8,0.9,1.5,1.5,2.2
	c0.5,0.5,1.3,1,2,1.4C6.5,14.8,7.4,14.9,8.3,14.9 M24,23.1c0,0.3-0.1,0.4-0.3,0.6c-0.1,0.1-0.3,0.3-0.5,0.3c-0.1,0-0.4-0.1-0.5-0.3
	l-9.2-9.2c-0.8,0.6-1.5,1-2.4,1.4c-0.9,0.4-1.8,0.5-2.8,0.5c-0.8,0-1.5-0.1-2.2-0.3c-0.8-0.3-1.4-0.5-2-0.9
	c-0.5-0.4-1.1-0.8-1.7-1.3c-0.5-0.5-0.9-1-1.3-1.7s-0.6-1.3-0.8-1.9C0.1,9.7,0.1,8.9,0.1,8.2c0-0.6,0-1.4,0.3-2.2
	c0.1-0.6,0.4-1.3,0.8-1.9c0.4-0.6,0.8-1.1,1.3-1.7c0.5-0.5,1.1-0.9,1.7-1.3c0.6-0.4,1.3-0.6,2-0.9C6.7,0.1,7.5,0,8.3,0
	s1.5,0.1,2.2,0.3c0.8,0.3,1.4,0.5,1.9,0.9c0.6,0.4,1.3,0.8,1.8,1.3c0.4,0.5,0.9,1,1.3,1.7c0.3,0.6,0.6,1.3,0.8,1.9
	c0.3,0.8,0.3,1.5,0.3,2.2c0,1-0.1,1.9-0.4,2.8c-0.4,0.9-0.9,1.8-1.5,2.6c0.1,0.1,0.4,0.3,0.8,0.6c0.3,0.3,0.6,0.6,1.1,1.1
	c0.5,0.5,1,0.9,1.5,1.5c0.5,0.5,1.1,1,1.7,1.7c0.5,0.5,1.1,1,1.7,1.5c0.5,0.6,0.9,1,1.4,1.5c0.4,0.4,0.6,0.8,0.9,1
	C23.9,22.9,24,23.1,24,23.1z"/>
</svg>
