<?xml version="1.0" encoding="utf-8"?>
<!-- Generator: Adobe Illustrator 20.1.0, SVG Export Plug-In . SVG Version: 6.00 Build 0)  -->
<svg version="1.1" id="Layer_1" xmlns="http://www.w3.org/2000/svg" xmlns:xlink="http://www.w3.org/1999/xlink" x="0px" y="0px"
	 viewBox="0 0 24 24" style="enable-background:new 0 0 24 24;" xml:space="preserve">
<style type="text/css">
	.st0{fill:#FFFFFF;}
</style>
<path class="st0" d="M12,15.1c0.5,0,0.9-0.1,1.3-0.3c0.4-0.1,0.6-0.4,0.9-0.6c0.4-0.3,0.5-0.6,0.8-1c0.1-0.4,0.1-0.8,0.1-1.2
	c0-0.5,0-0.9-0.1-1.3c-0.3-0.4-0.4-0.6-0.8-0.9C14,9.4,13.7,9.3,13.3,9c-0.4-0.1-0.8-0.1-1.3-0.1c-0.4,0-0.8,0-1.2,0.1
	c-0.4,0.3-0.8,0.4-1,0.8c-0.3,0.3-0.5,0.5-0.6,0.9S8.9,11.5,8.9,12c0,0.4,0.1,0.8,0.3,1.2c0.1,0.4,0.4,0.8,0.6,1
	c0.3,0.3,0.6,0.5,1,0.6C11.3,15,11.7,15.1,12,15.1 M12,7.5c0.6,0,1.2,0.1,1.8,0.4c0.5,0.3,0.9,0.5,1.4,0.9c0.4,0.5,0.6,0.9,0.9,1.4
	c0.3,0.6,0.4,1.2,0.4,1.8c0,0.6-0.1,1.2-0.4,1.7c-0.3,0.5-0.5,1-0.9,1.4c-0.5,0.4-0.9,0.8-1.4,0.9c-0.6,0.3-1.2,0.4-1.8,0.4
	c-0.6,0-1.2-0.1-1.7-0.4c-0.5-0.1-1-0.5-1.4-0.9c-0.4-0.4-0.8-0.9-0.9-1.4c-0.3-0.5-0.4-1-0.4-1.7c0-0.6,0.1-1.2,0.4-1.8
	c0.1-0.5,0.5-0.9,0.9-1.4c0.4-0.4,0.9-0.6,1.4-0.9C10.9,7.6,11.4,7.5,12,7.5z M19.7,13c0-0.1,0-0.4,0-0.5c0.1-0.1,0.1-0.4,0.1-0.5
	c0-0.3,0-0.4-0.1-0.6c0-0.1,0-0.4,0-0.5l2.8-1.7l-1-2.5l-3.2,0.6c-0.3-0.3-0.5-0.5-0.8-0.8c-0.3-0.3-0.5-0.5-0.8-0.8l0.6-3.2l-2.5-1
	l-1.7,2.8c-0.3,0-0.4,0-0.5,0c-0.3-0.1-0.4-0.1-0.6-0.1c-0.1,0-0.4,0-0.5,0.1c-0.3,0-0.4,0-0.5,0L9.2,1.5l-2.5,1l0.8,3.2
	C7.1,6.1,6.9,6.3,6.6,6.6C6.4,6.8,6.2,7.1,6,7.4L2.8,6.7l-1,2.5l2.7,1.7c0,0.3,0,0.4,0,0.5c0,0.3,0,0.4,0,0.6c0,0.1,0,0.4,0,0.5
	c0,0.3,0,0.4,0,0.5l-2.7,1.8l1,2.5L6,16.5c0.1,0.4,0.4,0.6,0.6,0.9c0.3,0.3,0.5,0.4,0.9,0.6l-0.8,3.2l2.5,1l1.8-2.7
	c0.1,0,0.3,0,0.5,0c0.1,0,0.4,0,0.5,0c0.3,0,0.4,0,0.6,0c0.1,0,0.3,0,0.5,0l1.7,2.7l2.5-1l-0.6-3.2c0.3-0.1,0.5-0.4,0.8-0.6
	c0.3-0.3,0.5-0.5,0.8-0.9l3.2,0.8l1-2.5L19.7,13z M21.1,11.5c0,0.1,0,0.3,0,0.3c0,0.1,0,0.1,0,0.3v0.1c0,0.1,0,0.1,0,0.3l3,1.9
	l-1.8,4.5l-3.5-0.8c-0.3,0.1-0.4,0.4-0.6,0.5l0.8,3.5L14.4,24l-1.8-3.1c-0.1,0-0.3,0-0.3,0c-0.1,0-0.1,0-0.3,0h-0.1
	c-0.1,0-0.1,0-0.3,0L9.7,24l-4.5-1.9L6,18.6c-0.1-0.1-0.4-0.4-0.5-0.5L2,18.8L0,14.3l3.1-1.9c0-0.1,0-0.1,0-0.3V12
	c0-0.1,0-0.1,0-0.3c0,0,0-0.1,0-0.3L0,9.7L2,5.2l3.5,0.8C5.6,5.7,5.9,5.5,6,5.3L5.2,1.8L9.7,0l1.9,3c0.1,0,0.1,0,0.3,0H12
	c0.1,0,0.1,0,0.3,0c0,0,0.1,0,0.3,0l1.8-3l4.5,1.8l-0.8,3.5c0.3,0.3,0.4,0.4,0.6,0.6l3.5-0.8L24,9.7L21.1,11.5z"/>
</svg>
