<svg id="Layer_1" data-name="Layer 1" xmlns="http://www.w3.org/2000/svg" viewBox="0 0 20 20"><defs><style>.cls-1{fill:#e5e5e5;}.cls-2{fill:#f2f2f2;}.cls-3{fill:#ccc;}.cls-4{fill:#757575;}.cls-5{fill:#16c60c;}.cls-6{fill:#ffb900;}.cls-7{fill:#31d2f7;}</style></defs><title>Artboard 1</title><path d="M3,20H0V17.61L4.21,13.4a3,3,0,0,1-.34-.73,2.63,2.63,0,0,1-.12-.8V5.63a4.82,4.82,0,0,1,.4-1.94A5,5,0,0,1,6.8,1,4.81,4.81,0,0,1,8.75.63h2.5a4.83,4.83,0,0,1,1.94.4,5,5,0,0,1,2.67,2.67,4.83,4.83,0,0,1,.4,1.94v6.25a2.64,2.64,0,0,1-.12.8,3,3,0,0,1-.34.73q1.05,1.05,2.09,2.12T20,17.61V20H17l-.63-.63H3.64Z"/><path class="cls-1" d="M15,5.63v3.7a4,4,0,0,1-.08.81q-.08.4-.2.79a5.34,5.34,0,0,1-1.77,2.7,4.93,4.93,0,0,1-3.09.91,5.11,5.11,0,0,1-1.6-.23A4.15,4.15,0,0,1,7,13.63a4.36,4.36,0,0,1-1-1.09,6.4,6.4,0,0,1-.68-1.46,7.4,7.4,0,0,1-.23-.87A4.45,4.45,0,0,1,5,9.32V5.63a3.62,3.62,0,0,1,.3-1.46,3.78,3.78,0,0,1,2-2,3.63,3.63,0,0,1,1.46-.3h2.5a3.63,3.63,0,0,1,1.46.3,3.78,3.78,0,0,1,2,2A3.63,3.63,0,0,1,15,5.63Z"/><path class="cls-2" d="M6.25,5.63A3,3,0,0,1,6.5,4.41,3.15,3.15,0,0,1,8.16,2.75,3,3,0,0,1,9.37,2.5h1.25a3,3,0,0,1,1.21.25A3.15,3.15,0,0,1,13.5,4.41a3,3,0,0,1,.25,1.21V12.5l-3.12,2.13H9.37L6.25,12.5Z"/><path class="cls-3" d="M6.25,13.12h.63v1.25L2.5,18.75H1.25v-.63Zm12.49,5v.63H17.49l-4.37-4.37V13.12h.63Z"/><path class="cls-4" d="M16.24,16.87l.63.63v.63H3.12V17.5l.63-.63ZM14.37,15v.62H5.62V15l.63-.63h7.5Zm-5-5v1.25H8.75V10Zm1.87,0v1.25h-.62V10Z"/><path class="cls-5" d="M10,13.75a4.89,4.89,0,0,0,1.95-.39,5,5,0,0,0,2.66-2.66A4.89,4.89,0,0,0,15,8.75v3.13a1.27,1.27,0,0,1-.17.69,3.18,3.18,0,0,1-.45.56L12.5,15l-.19.2-.19.2a2.5,2.5,0,0,1-.45.36,3.51,3.51,0,0,1-.53.27,3.3,3.3,0,0,1-.57.17,2.78,2.78,0,0,1-.57.06A3,3,0,0,1,8.86,16a3.33,3.33,0,0,1-1-.64l-.19-.2L7.5,15,5.63,13.12l-.26-.27a1.76,1.76,0,0,1-.2-.28A1.24,1.24,0,0,1,5,12.26a1.52,1.52,0,0,1,0-.38V8.75a4.89,4.89,0,0,0,.39,1.95,5,5,0,0,0,2.66,2.66A4.89,4.89,0,0,0,10,13.75Z"/><path class="cls-6" d="M7.5,10a.63.63,0,1,1,0,1.25.59.59,0,0,1-.43-.19.62.62,0,0,1,0-.88A.59.59,0,0,1,7.5,10Zm5,0a.64.64,0,1,1-.44.19A.6.6,0,0,1,12.5,10Z"/><path class="cls-7" d="M6.87,5.63V5h2.5V6.88A2.91,2.91,0,0,1,8,6.54,3.62,3.62,0,0,1,6.87,5.63ZM10.62,5h2.5v.63a3.62,3.62,0,0,1-1.1.91,2.91,2.91,0,0,1-1.39.34Z"/></svg>