<?xml version="1.0" encoding="utf-8"?>
<!-- Generator: Adobe Illustrator 20.1.0, SVG Export Plug-In . SVG Version: 6.00 Build 0)  -->
<svg version="1.1" id="Layer_1" xmlns="http://www.w3.org/2000/svg" xmlns:xlink="http://www.w3.org/1999/xlink" x="0px" y="0px"
	 viewBox="0 0 24 24" style="enable-background:new 0 0 24 24;" xml:space="preserve" fill="#ffffff">
<g>
	<path d="M16.6,14.7l2.9,9.3L12,18.2L4.5,24l2.9-9.3L0,9h9.2L12,0l2.8,9H24L16.6,14.7z M16.7,19.9c-0.3-1-0.6-1.9-0.9-2.9
		s-0.6-1.9-0.9-2.9c0.8-0.6,1.6-1.2,2.4-1.8s1.6-1.2,2.4-1.8h-5.9L12,5l-1.7,5.5H4.4c0.8,0.6,1.6,1.2,2.4,1.8s1.6,1.2,2.4,1.8
		c-0.3,1-0.6,1.9-0.9,2.9S7.6,19,7.3,19.9l4.7-3.6L16.7,19.9z"/>
</g>
</svg>
