<svg id="Слой_1" data-name="Слой 1" xmlns="http://www.w3.org/2000/svg" viewBox="0 0 60 60"><defs><style>.cls-1{fill:none;stroke:#15173f;stroke-linecap:round;stroke-linejoin:round;stroke-width:1.15px;}</style></defs><title>boat</title><path class="cls-1" d="M49.83,30.06s-8.42,6.3-18.29,6.3a45,45,0,0,1-18.29-4.3v-4a45,45,0,0,1,18.29-4.3c9.87,0,18.29,6.3,18.29,6.3"/><line class="cls-1" x1="21.6" y1="20.26" x2="29.41" y2="27.96"/><path class="cls-1" d="M21.6,20.26,19.8,22l-3.06-3a2,2,0,0,1,0-2.86l.36-.35.36-.35a2.07,2.07,0,0,1,2.9,0l3.06,3L21.6,20.26"/><line class="cls-1" x1="41.47" y1="39.86" x2="33.67" y2="32.16"/><path class="cls-1" d="M41.47,39.86l-1.81,1.78,3.06,3a2.07,2.07,0,0,0,2.9,0l.36-.35.36-.35a2,2,0,0,0,0-2.86l-3.06-3-1.81,1.78"/><line class="cls-1" x1="13.25" y1="41.82" x2="24.74" y2="41.82"/><line class="cls-1" x1="7.45" y1="20.4" x2="11.53" y2="20.4"/><line class="cls-1" x1="30.26" y1="17.46" x2="44.31" y2="17.46"/><line class="cls-1" x1="50.7" y1="38.46" x2="53.25" y2="38.46"/><ellipse class="cls-1" cx="31.54" cy="30.06" rx="2.61" ry="2.58"/></svg>