<svg xmlns="http://www.w3.org/2000/svg" width="17" height="17" viewBox="0 0 17 17"><path fill="#EE2426" d="M10.364 1.853c1.095.384 2.06 1.043 2.812 1.897h1.845c-.96-1.494-2.397-2.654-4.095-3.267l-.56 1.37z"/><path fill="#7AAF2B" d="M4.743 15.568l.562-1.37c.865.41 1.832.642 2.853.642.774 0 1.516-.133 2.207-.375l.56 1.37c-.863.31-1.795.482-2.767.482-1.22 0-2.376-.27-3.415-.75z"/><path fill="#4E8EC5" d="M4.744 15.568l.56-1.37c-.828-.392-1.563-.95-2.163-1.63H1.297c.837 1.3 2.033 2.346 3.448 3z"/><path fill="#22384E" d="M4.505 8.696l.64-1.573.64 1.573h-1.28zm.145-4.24c-.116.008-.558.06-.78.445l-2.11 5.18c-.184-.608-.283-1.253-.283-1.922 0-3.69 2.992-6.68 6.68-6.68.775 0 1.517.132 2.207.374l.56-1.37C10.062.172 9.13 0 8.16 0 3.653 0 0 3.653 0 8.16c0 1.334.322 2.592.89 3.703h2.325l.55-1.348h2.76l.284.693c.15.384.52.653.953.653H9.29L6.257 4.457H4.65z"/><path fill="#22384E" d="M15.426 4.454h-5.54c-.126.01-.64.072-.836.557l-.517 1.266h1.655L8.973 9.213l1.086 2.648 2.308-5.584h2.2c.176.597.27 1.23.27 1.883 0 2.915-1.868 5.394-4.473 6.305l.56 1.37c3.144-1.134 5.39-4.142 5.39-7.676 0-1.336-.32-2.594-.89-3.706z"/></svg>