<svg width="250" height="250" viewBox="0 0 250 250" version="1.1" xmlns="http://www.w3.org/2000/svg" xmlns:xlink="http://www.w3.org/1999/xlink">
<title>bus-selection</title>
<desc>Created using Figma</desc>
<g id="Canvas" transform="translate(883 1690)">
<g id="bus-selection">
<g id="Canvas">
<g id="bus selection">
<g id="layer1">
<g id="Ellipse">
<g id="Vector">
<use xlink:href="#path0_fill" transform="translate(-883 -1690)" fill="#FFFFFF"/>
</g>
<mask id="mask0_alpha" mask-type="alpha">
<g id="mask0 outline ins">
<g id="Vector">
<use xlink:href="#path0_fill" transform="translate(-883 -1690)" fill="#FFFFFF"/>
</g>
</g>
</mask>
<g id="Group" mask="url(#mask0_alpha)">
<g id="Vector">
<use xlink:href="#path1_fill" transform="translate(-913 -1720)" fill="#FFFFFF"/>
</g>
</g>
</g>
<g id="path21">
<g id="Vector">
<use xlink:href="#path2_fill" transform="translate(-863.033 -1670.06)" fill="#00A6E5"/>
</g>
</g>
</g>
</g>
</g>
</g>
</g>
<defs>
<path id="path0_fill" d="M 250 125C 250 194.036 194.036 250 125 250C 55.9644 250 0 194.036 0 125C 0 55.9644 55.9644 0 125 0C 194.036 0 250 55.9644 250 125Z"/>
<path id="path1_fill" d="M 250 155C 250 207.467 207.467 250 155 250L 155 310C 240.604 310 310 240.604 310 155L 250 155ZM 155 250C 102.533 250 60 207.467 60 155L 0 155C 0 240.604 69.3959 310 155 310L 155 250ZM 60 155C 60 102.533 102.533 60 155 60L 155 0C 69.3959 0 0 69.3959 0 155L 60 155ZM 155 60C 207.467 60 250 102.533 250 155L 310 155C 310 69.3959 240.604 0 155 0L 155 60Z"/>
<path id="path2_fill" d="M 99.6866 209.989C 99.3771 209.965 98.1426 209.876 96.9432 209.792C 83.7469 208.869 69.9052 205.001 57.7169 198.83C 33.2211 186.427 14.2904 164.652 5.54629 138.822C 1.74165 127.583 -0.00385965 116.913 6.40748e-06 104.917C 0.00546505 87.9936 3.81682 72.2725 11.5939 57.094C 21.7198 37.3313 38.0603 21.1507 57.9731 11.1684C 65.417 7.43675 72.1569 4.94173 80.0458 2.99728C 91.4802 0.178952 103.932 -0.677872 115.795 0.537356C 135.75 2.58145 154.889 10.4298 170.522 22.9793C 182.532 32.6195 192.216 44.573 199.019 58.1523C 207.873 75.8281 211.542 95.8358 209.554 115.609C 207.344 137.593 198.351 158.022 183.482 174.838C 180.376 178.351 175.56 182.992 171.725 186.167C 168.143 189.132 162.686 192.963 158.564 195.406C 144.018 204.026 128.353 208.834 111.225 209.935C 109.22 210.064 101.137 210.102 99.6866 209.989ZM 116.2 170.964C 125.861 170.404 133.978 167.964 140.415 163.685C 148.459 158.337 153.208 150.735 154.713 140.798C 155.008 138.853 155.132 132.261 154.918 129.929C 154.192 122.012 151.455 115.814 146.545 110.966C 143.067 107.533 138.757 105.212 133.768 104.084C 133.255 103.968 133.279 103.795 133.838 103.574C 134.877 103.163 137.656 101.729 138.614 101.11C 144.456 97.3345 148.467 91.6917 150.195 84.819C 151.561 79.3861 151.557 71.0647 150.186 65.5838C 148.073 57.1396 142.923 50.8061 134.858 46.7338C 130.521 44.5439 126.081 43.2674 119.875 42.4263C 118.292 42.2118 115.434 42.18 91.3156 42.1089C 76.5751 42.0654 64.3724 42.053 64.1982 42.0814L 63.8817 42.1329L 63.8817 106.528C 63.8817 141.945 63.9239 170.964 63.9755 171.016C 64.1301 171.171 113.482 171.122 116.2 170.964ZM 89.9441 148.638L 89.3462 148.584L 89.3462 131.86C 89.3462 115.329 89.3494 115.134 89.624 115.047C 90.1464 114.881 112.396 115.062 113.826 115.243C 121.309 116.194 125.587 118.696 127.89 123.468C 129.093 125.963 129.581 128.421 129.581 131.999C 129.581 137.348 128.281 141.107 125.538 143.693C 122.234 146.806 117.551 148.208 109.145 148.601C 106.472 148.726 91.2476 148.755 89.9441 148.638ZM 89.3462 79.1799L 89.3462 63.6252L 98.737 63.6262C 109.723 63.6282 112.194 63.7808 115.729 64.6775C 118.761 65.4466 121.032 66.6271 122.769 68.3377C 124.314 69.8596 125.174 71.3835 125.808 73.722C 126.06 74.6555 126.111 75.3269 126.166 78.4672C 126.222 81.7068 126.198 82.278 125.954 83.463C 125.424 86.0453 124.37 88.015 122.562 89.801C 120.18 92.1545 116.912 93.5536 111.856 94.3833C 110.576 94.5933 108.975 94.6329 99.8625 94.6799L 89.3462 94.7341L 89.3462 79.1799Z"/>
</defs>
</svg>
