<svg width="251" height="251" viewBox="0 0 251 251" fill="none" xmlns="http://www.w3.org/2000/svg">
<path d="M125.001 0.996477C56.0753 0.996477 0 57.0714 0 126C0 194.923 56.0753 251 125.001 251C193.927 251 250.004 194.923 250.004 126C250.004 57.0714 193.927 0.996477 125.001 0.996477" fill="white"/>
<path d="M125.002 230.167C67.5621 230.167 20.8335 183.436 20.8335 126C20.8335 68.5597 67.5621 21.8301 125.002 21.8301C182.44 21.8301 229.17 68.5597 229.17 126C229.17 183.436 182.44 230.167 125.002 230.167" fill="#06969F"/>
<path d="M183.892 63.5185H153.521C152.285 63.5185 151.401 64.0477 150.871 65.4606L132.684 129.384C129.152 141.921 125.974 157.636 124.737 170.173C124.736 170.167 124.736 170.161 124.736 170.155C124.729 170.078 124.723 170.003 124.716 169.925L124.715 169.958C123.464 157.457 120.303 141.85 116.791 129.384L98.603 65.4606C98.0731 64.0477 97.1904 63.5185 95.9543 63.5185H65.5819C63.8159 63.5185 63.1096 64.9314 63.1096 66.1679V190.305C63.1096 191.719 64.1694 192.777 65.4055 192.777H83.4167C84.4765 192.777 85.7126 191.895 85.7126 190.305V112.079C85.7126 102.72 84.6529 94.7741 84.123 88.24C84.3001 88.5935 84.3001 88.9463 84.4765 89.2998L110.787 190.835C111.14 191.895 111.67 192.777 113.259 192.777H124.366H127.071H136.216C137.805 192.777 138.335 191.895 138.688 190.835L164.998 89.2998C165.175 88.9463 165.175 88.5935 165.351 88.24C164.821 94.7741 163.762 102.72 163.762 112.079V190.305C163.762 191.895 164.998 192.777 166.058 192.777H184.07C185.305 192.777 186.365 191.719 186.365 190.305V66.1679C186.365 64.9314 185.659 63.5185 183.892 63.5185Z" fill="white"/>
</svg>
