<svg width="251" height="251" viewBox="0 0 251 251" fill="none" xmlns="http://www.w3.org/2000/svg">
<path d="M125.001 1.69388e-05C56.0753 1.69388e-05 0 56.0749 0 125.004C0 193.927 56.0753 250.004 125.001 250.004C193.927 250.004 250.004 193.927 250.004 125.004C250.004 56.0749 193.927 1.69388e-05 125.001 1.69388e-05" fill="#06969F"/>
<path d="M125.002 229.17C67.5621 229.17 20.8335 182.44 20.8335 125.004C20.8335 67.5633 67.5621 20.8336 125.002 20.8336C182.44 20.8336 229.17 67.5633 229.17 125.004C229.17 182.44 182.44 229.17 125.002 229.17" fill="#06969F"/>
<path d="M183.892 62.5221H153.521C152.285 62.5221 151.401 63.0512 150.871 64.4641L132.684 128.388C129.152 140.924 125.974 156.639 124.737 169.177C124.736 169.171 124.736 169.164 124.736 169.158C124.729 169.082 124.723 169.006 124.716 168.929L124.715 168.962C123.464 156.46 120.303 140.854 116.791 128.388L98.603 64.4641C98.0731 63.0512 97.1904 62.5221 95.9543 62.5221H65.5819C63.8159 62.5221 63.1096 63.935 63.1096 65.1715V189.309C63.1096 190.722 64.1694 191.781 65.4055 191.781H83.4167C84.4765 191.781 85.7126 190.899 85.7126 189.309V111.083C85.7126 101.724 84.6528 93.7776 84.123 87.2435C84.3001 87.597 84.3001 87.9498 84.4765 88.3033L110.787 189.838C111.14 190.899 111.67 191.781 113.259 191.781H124.366H127.071H136.216C137.805 191.781 138.334 190.899 138.688 189.838L164.998 88.3033C165.175 87.9498 165.175 87.597 165.351 87.2435C164.821 93.7776 163.762 101.724 163.762 111.083V189.309C163.762 190.899 164.998 191.781 166.058 191.781H184.07C185.305 191.781 186.365 190.722 186.365 189.309V65.1715C186.365 63.935 185.659 62.5221 183.892 62.5221Z" fill="white"/>
</svg>
